<?xml version="1.0" encoding="utf-8" standalone="no"?>
<!DOCTYPE svg PUBLIC "-//W3C//DTD SVG 1.1//EN"
  "http://www.w3.org/Graphics/SVG/1.1/DTD/svg11.dtd">
<svg xmlns:xlink="http://www.w3.org/1999/xlink" width="460.8pt" height="345.6pt" viewBox="0 0 460.8 345.6" xmlns="http://www.w3.org/2000/svg" version="1.1">
 <metadata>
  <rdf:RDF xmlns:dc="http://purl.org/dc/elements/1.1/" xmlns:cc="http://creativecommons.org/ns#" xmlns:rdf="http://www.w3.org/1999/02/22-rdf-syntax-ns#">
   <cc:Work>
    <dc:type rdf:resource="http://purl.org/dc/dcmitype/StillImage"/>
    <dc:date>2025-10-10T23:26:33.364191</dc:date>
    <dc:format>image/svg+xml</dc:format>
    <dc:creator>
     <cc:Agent>
      <dc:title>Matplotlib v3.10.6, https://matplotlib.org/</dc:title>
     </cc:Agent>
    </dc:creator>
   </cc:Work>
  </rdf:RDF>
 </metadata>
 <defs>
  <style type="text/css">*{stroke-linejoin: round; stroke-linecap: butt}</style>
 </defs>
 <g id="figure_1">
  <g id="patch_1">
   <path d="M 0 345.6 
L 460.8 345.6 
L 460.8 0 
L 0 0 
z
" style="fill: #ffffff"/>
  </g>
  <g id="axes_1">
   <g id="patch_2">
    <path d="M 57.6 307.584 
L 414.72 307.584 
L 414.72 41.472 
L 57.6 41.472 
z
" style="fill: #ffffff"/>
   </g>
   <g id="matplotlib.axis_1">
    <g id="xtick_1">
     <g id="line2d_1">
      <path d="M 73.832727 307.584 
L 73.832727 41.472 
" clip-path="url(#paab2bbd281)" style="fill: none; stroke: #b0b0b0; stroke-width: 0.8; stroke-linecap: square"/>
     </g>
     <g id="line2d_2">
      <defs>
       <path id="mc37c4ef2d8" d="M 0 0 
L 0 3.5 
" style="stroke: #000000; stroke-width: 0.8"/>
      </defs>
      <g>
       <use xlink:href="#mc37c4ef2d8" x="73.832727" y="307.584" style="stroke: #000000; stroke-width: 0.8"/>
      </g>
     </g>
     <g id="text_1">
      <!-- 0 -->
      <g transform="translate(70.651477 322.182437) scale(0.1 -0.1)">
       <defs>
        <path id="DejaVuSans-30" d="M 2034 4250 
Q 1547 4250 1301 3770 
Q 1056 3291 1056 2328 
Q 1056 1369 1301 889 
Q 1547 409 2034 409 
Q 2525 409 2770 889 
Q 3016 1369 3016 2328 
Q 3016 3291 2770 3770 
Q 2525 4250 2034 4250 
z
M 2034 4750 
Q 2819 4750 3233 4129 
Q 3647 3509 3647 2328 
Q 3647 1150 3233 529 
Q 2819 -91 2034 -91 
Q 1250 -91 836 529 
Q 422 1150 422 2328 
Q 422 3509 836 4129 
Q 1250 4750 2034 4750 
z
" transform="scale(0.015625)"/>
       </defs>
       <use xlink:href="#DejaVuSans-30"/>
      </g>
     </g>
    </g>
    <g id="xtick_2">
     <g id="line2d_3">
      <path d="M 128.122785 307.584 
L 128.122785 41.472 
" clip-path="url(#paab2bbd281)" style="fill: none; stroke: #b0b0b0; stroke-width: 0.8; stroke-linecap: square"/>
     </g>
     <g id="line2d_4">
      <g>
       <use xlink:href="#mc37c4ef2d8" x="128.122785" y="307.584" style="stroke: #000000; stroke-width: 0.8"/>
      </g>
     </g>
     <g id="text_2">
      <!-- 50 -->
      <g transform="translate(121.760285 322.182437) scale(0.1 -0.1)">
       <defs>
        <path id="DejaVuSans-35" d="M 691 4666 
L 3169 4666 
L 3169 4134 
L 1269 4134 
L 1269 2991 
Q 1406 3038 1543 3061 
Q 1681 3084 1819 3084 
Q 2600 3084 3056 2656 
Q 3513 2228 3513 1497 
Q 3513 744 3044 326 
Q 2575 -91 1722 -91 
Q 1428 -91 1123 -41 
Q 819 9 494 109 
L 494 744 
Q 775 591 1075 516 
Q 1375 441 1709 441 
Q 2250 441 2565 725 
Q 2881 1009 2881 1497 
Q 2881 1984 2565 2268 
Q 2250 2553 1709 2553 
Q 1456 2553 1204 2497 
Q 953 2441 691 2322 
L 691 4666 
z
" transform="scale(0.015625)"/>
       </defs>
       <use xlink:href="#DejaVuSans-35"/>
       <use xlink:href="#DejaVuSans-30" transform="translate(63.623047 0)"/>
      </g>
     </g>
    </g>
    <g id="xtick_3">
     <g id="line2d_5">
      <path d="M 182.412843 307.584 
L 182.412843 41.472 
" clip-path="url(#paab2bbd281)" style="fill: none; stroke: #b0b0b0; stroke-width: 0.8; stroke-linecap: square"/>
     </g>
     <g id="line2d_6">
      <g>
       <use xlink:href="#mc37c4ef2d8" x="182.412843" y="307.584" style="stroke: #000000; stroke-width: 0.8"/>
      </g>
     </g>
     <g id="text_3">
      <!-- 100 -->
      <g transform="translate(172.869093 322.182437) scale(0.1 -0.1)">
       <defs>
        <path id="DejaVuSans-31" d="M 794 531 
L 1825 531 
L 1825 4091 
L 703 3866 
L 703 4441 
L 1819 4666 
L 2450 4666 
L 2450 531 
L 3481 531 
L 3481 0 
L 794 0 
L 794 531 
z
" transform="scale(0.015625)"/>
       </defs>
       <use xlink:href="#DejaVuSans-31"/>
       <use xlink:href="#DejaVuSans-30" transform="translate(63.623047 0)"/>
       <use xlink:href="#DejaVuSans-30" transform="translate(127.246094 0)"/>
      </g>
     </g>
    </g>
    <g id="xtick_4">
     <g id="line2d_7">
      <path d="M 236.702901 307.584 
L 236.702901 41.472 
" clip-path="url(#paab2bbd281)" style="fill: none; stroke: #b0b0b0; stroke-width: 0.8; stroke-linecap: square"/>
     </g>
     <g id="line2d_8">
      <g>
       <use xlink:href="#mc37c4ef2d8" x="236.702901" y="307.584" style="stroke: #000000; stroke-width: 0.8"/>
      </g>
     </g>
     <g id="text_4">
      <!-- 150 -->
      <g transform="translate(227.159151 322.182437) scale(0.1 -0.1)">
       <use xlink:href="#DejaVuSans-31"/>
       <use xlink:href="#DejaVuSans-35" transform="translate(63.623047 0)"/>
       <use xlink:href="#DejaVuSans-30" transform="translate(127.246094 0)"/>
      </g>
     </g>
    </g>
    <g id="xtick_5">
     <g id="line2d_9">
      <path d="M 290.992958 307.584 
L 290.992958 41.472 
" clip-path="url(#paab2bbd281)" style="fill: none; stroke: #b0b0b0; stroke-width: 0.8; stroke-linecap: square"/>
     </g>
     <g id="line2d_10">
      <g>
       <use xlink:href="#mc37c4ef2d8" x="290.992958" y="307.584" style="stroke: #000000; stroke-width: 0.8"/>
      </g>
     </g>
     <g id="text_5">
      <!-- 200 -->
      <g transform="translate(281.449208 322.182437) scale(0.1 -0.1)">
       <defs>
        <path id="DejaVuSans-32" d="M 1228 531 
L 3431 531 
L 3431 0 
L 469 0 
L 469 531 
Q 828 903 1448 1529 
Q 2069 2156 2228 2338 
Q 2531 2678 2651 2914 
Q 2772 3150 2772 3378 
Q 2772 3750 2511 3984 
Q 2250 4219 1831 4219 
Q 1534 4219 1204 4116 
Q 875 4013 500 3803 
L 500 4441 
Q 881 4594 1212 4672 
Q 1544 4750 1819 4750 
Q 2544 4750 2975 4387 
Q 3406 4025 3406 3419 
Q 3406 3131 3298 2873 
Q 3191 2616 2906 2266 
Q 2828 2175 2409 1742 
Q 1991 1309 1228 531 
z
" transform="scale(0.015625)"/>
       </defs>
       <use xlink:href="#DejaVuSans-32"/>
       <use xlink:href="#DejaVuSans-30" transform="translate(63.623047 0)"/>
       <use xlink:href="#DejaVuSans-30" transform="translate(127.246094 0)"/>
      </g>
     </g>
    </g>
    <g id="xtick_6">
     <g id="line2d_11">
      <path d="M 345.283016 307.584 
L 345.283016 41.472 
" clip-path="url(#paab2bbd281)" style="fill: none; stroke: #b0b0b0; stroke-width: 0.8; stroke-linecap: square"/>
     </g>
     <g id="line2d_12">
      <g>
       <use xlink:href="#mc37c4ef2d8" x="345.283016" y="307.584" style="stroke: #000000; stroke-width: 0.8"/>
      </g>
     </g>
     <g id="text_6">
      <!-- 250 -->
      <g transform="translate(335.739266 322.182437) scale(0.1 -0.1)">
       <use xlink:href="#DejaVuSans-32"/>
       <use xlink:href="#DejaVuSans-35" transform="translate(63.623047 0)"/>
       <use xlink:href="#DejaVuSans-30" transform="translate(127.246094 0)"/>
      </g>
     </g>
    </g>
    <g id="xtick_7">
     <g id="line2d_13">
      <path d="M 399.573074 307.584 
L 399.573074 41.472 
" clip-path="url(#paab2bbd281)" style="fill: none; stroke: #b0b0b0; stroke-width: 0.8; stroke-linecap: square"/>
     </g>
     <g id="line2d_14">
      <g>
       <use xlink:href="#mc37c4ef2d8" x="399.573074" y="307.584" style="stroke: #000000; stroke-width: 0.8"/>
      </g>
     </g>
     <g id="text_7">
      <!-- 300 -->
      <g transform="translate(390.029324 322.182437) scale(0.1 -0.1)">
       <defs>
        <path id="DejaVuSans-33" d="M 2597 2516 
Q 3050 2419 3304 2112 
Q 3559 1806 3559 1356 
Q 3559 666 3084 287 
Q 2609 -91 1734 -91 
Q 1441 -91 1130 -33 
Q 819 25 488 141 
L 488 750 
Q 750 597 1062 519 
Q 1375 441 1716 441 
Q 2309 441 2620 675 
Q 2931 909 2931 1356 
Q 2931 1769 2642 2001 
Q 2353 2234 1838 2234 
L 1294 2234 
L 1294 2753 
L 1863 2753 
Q 2328 2753 2575 2939 
Q 2822 3125 2822 3475 
Q 2822 3834 2567 4026 
Q 2313 4219 1838 4219 
Q 1578 4219 1281 4162 
Q 984 4106 628 3988 
L 628 4550 
Q 988 4650 1302 4700 
Q 1616 4750 1894 4750 
Q 2613 4750 3031 4423 
Q 3450 4097 3450 3541 
Q 3450 3153 3228 2886 
Q 3006 2619 2597 2516 
z
" transform="scale(0.015625)"/>
       </defs>
       <use xlink:href="#DejaVuSans-33"/>
       <use xlink:href="#DejaVuSans-30" transform="translate(63.623047 0)"/>
       <use xlink:href="#DejaVuSans-30" transform="translate(127.246094 0)"/>
      </g>
     </g>
    </g>
   </g>
   <g id="matplotlib.axis_2">
    <g id="ytick_1">
     <g id="line2d_15">
      <path d="M 57.6 306.22176 
L 414.72 306.22176 
" clip-path="url(#paab2bbd281)" style="fill: none; stroke: #b0b0b0; stroke-width: 0.8; stroke-linecap: square"/>
     </g>
     <g id="line2d_16">
      <defs>
       <path id="m8c98284ea1" d="M 0 0 
L -3.5 0 
" style="stroke: #000000; stroke-width: 0.8"/>
      </defs>
      <g>
       <use xlink:href="#m8c98284ea1" x="57.6" y="306.22176" style="stroke: #000000; stroke-width: 0.8"/>
      </g>
     </g>
     <g id="text_8">
      <!-- 4 -->
      <g transform="translate(44.2375 310.020978) scale(0.1 -0.1)">
       <defs>
        <path id="DejaVuSans-34" d="M 2419 4116 
L 825 1625 
L 2419 1625 
L 2419 4116 
z
M 2253 4666 
L 3047 4666 
L 3047 1625 
L 3713 1625 
L 3713 1100 
L 3047 1100 
L 3047 0 
L 2419 0 
L 2419 1100 
L 313 1100 
L 313 1709 
L 2253 4666 
z
" transform="scale(0.015625)"/>
       </defs>
       <use xlink:href="#DejaVuSans-34"/>
      </g>
     </g>
    </g>
    <g id="ytick_2">
     <g id="line2d_17">
      <path d="M 57.6 256.132753 
L 414.72 256.132753 
" clip-path="url(#paab2bbd281)" style="fill: none; stroke: #b0b0b0; stroke-width: 0.8; stroke-linecap: square"/>
     </g>
     <g id="line2d_18">
      <g>
       <use xlink:href="#m8c98284ea1" x="57.6" y="256.132753" style="stroke: #000000; stroke-width: 0.8"/>
      </g>
     </g>
     <g id="text_9">
      <!-- 6 -->
      <g transform="translate(44.2375 259.931971) scale(0.1 -0.1)">
       <defs>
        <path id="DejaVuSans-36" d="M 2113 2584 
Q 1688 2584 1439 2293 
Q 1191 2003 1191 1497 
Q 1191 994 1439 701 
Q 1688 409 2113 409 
Q 2538 409 2786 701 
Q 3034 994 3034 1497 
Q 3034 2003 2786 2293 
Q 2538 2584 2113 2584 
z
M 3366 4563 
L 3366 3988 
Q 3128 4100 2886 4159 
Q 2644 4219 2406 4219 
Q 1781 4219 1451 3797 
Q 1122 3375 1075 2522 
Q 1259 2794 1537 2939 
Q 1816 3084 2150 3084 
Q 2853 3084 3261 2657 
Q 3669 2231 3669 1497 
Q 3669 778 3244 343 
Q 2819 -91 2113 -91 
Q 1303 -91 875 529 
Q 447 1150 447 2328 
Q 447 3434 972 4092 
Q 1497 4750 2381 4750 
Q 2619 4750 2861 4703 
Q 3103 4656 3366 4563 
z
" transform="scale(0.015625)"/>
       </defs>
       <use xlink:href="#DejaVuSans-36"/>
      </g>
     </g>
    </g>
    <g id="ytick_3">
     <g id="line2d_19">
      <path d="M 57.6 206.043746 
L 414.72 206.043746 
" clip-path="url(#paab2bbd281)" style="fill: none; stroke: #b0b0b0; stroke-width: 0.8; stroke-linecap: square"/>
     </g>
     <g id="line2d_20">
      <g>
       <use xlink:href="#m8c98284ea1" x="57.6" y="206.043746" style="stroke: #000000; stroke-width: 0.8"/>
      </g>
     </g>
     <g id="text_10">
      <!-- 8 -->
      <g transform="translate(44.2375 209.842964) scale(0.1 -0.1)">
       <defs>
        <path id="DejaVuSans-38" d="M 2034 2216 
Q 1584 2216 1326 1975 
Q 1069 1734 1069 1313 
Q 1069 891 1326 650 
Q 1584 409 2034 409 
Q 2484 409 2743 651 
Q 3003 894 3003 1313 
Q 3003 1734 2745 1975 
Q 2488 2216 2034 2216 
z
M 1403 2484 
Q 997 2584 770 2862 
Q 544 3141 544 3541 
Q 544 4100 942 4425 
Q 1341 4750 2034 4750 
Q 2731 4750 3128 4425 
Q 3525 4100 3525 3541 
Q 3525 3141 3298 2862 
Q 3072 2584 2669 2484 
Q 3125 2378 3379 2068 
Q 3634 1759 3634 1313 
Q 3634 634 3220 271 
Q 2806 -91 2034 -91 
Q 1263 -91 848 271 
Q 434 634 434 1313 
Q 434 1759 690 2068 
Q 947 2378 1403 2484 
z
M 1172 3481 
Q 1172 3119 1398 2916 
Q 1625 2713 2034 2713 
Q 2441 2713 2670 2916 
Q 2900 3119 2900 3481 
Q 2900 3844 2670 4047 
Q 2441 4250 2034 4250 
Q 1625 4250 1398 4047 
Q 1172 3844 1172 3481 
z
" transform="scale(0.015625)"/>
       </defs>
       <use xlink:href="#DejaVuSans-38"/>
      </g>
     </g>
    </g>
    <g id="ytick_4">
     <g id="line2d_21">
      <path d="M 57.6 155.954739 
L 414.72 155.954739 
" clip-path="url(#paab2bbd281)" style="fill: none; stroke: #b0b0b0; stroke-width: 0.8; stroke-linecap: square"/>
     </g>
     <g id="line2d_22">
      <g>
       <use xlink:href="#m8c98284ea1" x="57.6" y="155.954739" style="stroke: #000000; stroke-width: 0.8"/>
      </g>
     </g>
     <g id="text_11">
      <!-- 10 -->
      <g transform="translate(37.875 159.753957) scale(0.1 -0.1)">
       <use xlink:href="#DejaVuSans-31"/>
       <use xlink:href="#DejaVuSans-30" transform="translate(63.623047 0)"/>
      </g>
     </g>
    </g>
    <g id="ytick_5">
     <g id="line2d_23">
      <path d="M 57.6 105.865732 
L 414.72 105.865732 
" clip-path="url(#paab2bbd281)" style="fill: none; stroke: #b0b0b0; stroke-width: 0.8; stroke-linecap: square"/>
     </g>
     <g id="line2d_24">
      <g>
       <use xlink:href="#m8c98284ea1" x="57.6" y="105.865732" style="stroke: #000000; stroke-width: 0.8"/>
      </g>
     </g>
     <g id="text_12">
      <!-- 12 -->
      <g transform="translate(37.875 109.66495) scale(0.1 -0.1)">
       <use xlink:href="#DejaVuSans-31"/>
       <use xlink:href="#DejaVuSans-32" transform="translate(63.623047 0)"/>
      </g>
     </g>
    </g>
    <g id="ytick_6">
     <g id="line2d_25">
      <path d="M 57.6 55.776725 
L 414.72 55.776725 
" clip-path="url(#paab2bbd281)" style="fill: none; stroke: #b0b0b0; stroke-width: 0.8; stroke-linecap: square"/>
     </g>
     <g id="line2d_26">
      <g>
       <use xlink:href="#m8c98284ea1" x="57.6" y="55.776725" style="stroke: #000000; stroke-width: 0.8"/>
      </g>
     </g>
     <g id="text_13">
      <!-- 14 -->
      <g transform="translate(37.875 59.575943) scale(0.1 -0.1)">
       <use xlink:href="#DejaVuSans-31"/>
       <use xlink:href="#DejaVuSans-34" transform="translate(63.623047 0)"/>
      </g>
     </g>
    </g>
   </g>
   <g id="line2d_27">
    <path d="M 73.832727 53.568 
L 74.918528 56.466455 
L 76.00433 57.363144 
L 77.090131 66.086812 
L 78.175932 68.689365 
L 79.261733 72.687573 
L 80.347534 75.095684 
L 81.433335 79.470308 
L 82.519137 86.256578 
L 83.604938 81.703705 
L 84.690739 87.632839 
L 85.77654 90.466114 
L 86.862341 94.206778 
L 87.948142 99.39139 
L 89.033943 98.640898 
L 90.119745 100.21891 
L 91.205546 107.105876 
L 92.291347 100.989346 
L 93.377148 101.505844 
L 95.54875 109.889806 
L 96.634552 111.404644 
L 97.720353 114.282845 
L 98.806154 113.708094 
L 99.891955 110.703067 
L 100.977756 122.810161 
L 102.063557 120.587035 
L 103.149358 119.091686 
L 104.23516 122.099651 
L 105.320961 121.707925 
L 106.406762 122.391159 
L 107.492563 124.820455 
L 108.578364 125.980301 
L 109.664165 130.575783 
L 110.749967 130.752002 
L 111.835768 130.25036 
L 112.921569 132.498183 
L 114.00737 131.966948 
L 115.093171 132.838438 
L 116.178972 135.584822 
L 117.264773 136.670077 
L 118.350575 132.039676 
L 119.436376 136.616075 
L 120.522177 139.907881 
L 121.607978 136.907009 
L 122.693779 140.844671 
L 124.865382 142.975389 
L 125.951183 144.553472 
L 127.036984 138.667688 
L 128.122785 143.540993 
L 129.208586 147.405067 
L 130.294387 148.916632 
L 131.380189 143.995726 
L 132.46599 146.517407 
L 133.551791 147.648519 
L 134.637592 148.610531 
L 135.723393 146.739913 
L 136.809194 148.918472 
L 137.894995 150.733559 
L 138.980797 146.251742 
L 140.066598 147.78349 
L 141.152399 154.235666 
L 142.2382 152.985108 
L 143.324001 154.358981 
L 144.409802 154.852096 
L 145.495604 155.765408 
L 147.667206 153.719861 
L 148.753007 156.824963 
L 149.838808 153.731158 
L 150.924609 157.273104 
L 152.01041 156.660639 
L 153.096212 158.427958 
L 154.182013 159.690482 
L 155.267814 157.439243 
L 156.353615 158.442479 
L 157.439416 157.295388 
L 158.525217 163.914325 
L 159.611019 160.464047 
L 160.69682 162.02682 
L 161.782621 160.646069 
L 162.868422 163.216497 
L 163.954223 161.644289 
L 165.040024 166.78505 
L 166.125825 161.482258 
L 167.211627 167.509342 
L 168.297428 168.0604 
L 169.383229 168.341519 
L 170.46903 167.279455 
L 171.554831 170.559009 
L 172.640632 168.55428 
L 173.726434 170.119418 
L 174.812235 167.930709 
L 175.898036 167.421256 
L 176.983837 171.468045 
L 178.069638 169.301237 
L 179.155439 173.065785 
L 180.24124 173.741185 
L 181.327042 174.151303 
L 182.412843 173.323736 
L 183.498644 174.701669 
L 184.584445 174.898905 
L 185.670246 175.37523 
L 187.841849 178.912089 
L 190.013451 176.487546 
L 191.099252 176.850539 
L 192.185053 177.908638 
L 194.356656 180.564237 
L 195.442457 180.404284 
L 196.528258 178.719892 
L 197.614059 180.09675 
L 198.69986 181.710731 
L 199.785661 184.258756 
L 200.871462 178.259808 
L 201.957264 182.041004 
L 203.043065 183.090312 
L 204.128866 183.450989 
L 206.300468 184.606942 
L 207.386269 185.429111 
L 208.472071 185.368899 
L 209.557872 183.313177 
L 210.643673 185.2645 
L 211.729474 187.621355 
L 212.815275 186.240795 
L 213.901076 188.503737 
L 214.986877 188.979058 
L 216.072679 188.964154 
L 217.15848 186.166682 
L 218.244281 190.871865 
L 219.330082 192.724403 
L 220.415883 190.1652 
L 221.501684 192.602044 
L 222.587486 189.064516 
L 223.673287 190.520169 
L 224.759088 193.931181 
L 225.844889 195.366866 
L 226.93069 194.247887 
L 228.016491 194.419137 
L 229.102292 192.941893 
L 230.188094 194.306069 
L 231.273895 194.083921 
L 232.359696 194.017356 
L 233.445497 196.719291 
L 234.531298 195.314966 
L 235.617099 196.693162 
L 236.702901 198.362746 
L 237.788702 197.211093 
L 238.874503 195.573728 
L 239.960304 198.061636 
L 241.046105 199.884916 
L 242.131906 201.123484 
L 243.217708 197.886469 
L 244.303509 198.911177 
L 245.38931 201.391179 
L 246.475111 201.578528 
L 247.560912 202.35718 
L 248.646713 202.26931 
L 249.732514 202.631682 
L 250.818316 203.907152 
L 251.904117 202.379751 
L 252.989918 204.555825 
L 255.16152 206.334095 
L 256.247321 207.030681 
L 257.333123 208.034729 
L 258.418924 208.469101 
L 259.504725 207.431304 
L 260.590526 209.671854 
L 261.676327 208.520321 
L 262.762128 209.996012 
L 263.847929 210.370446 
L 264.933731 209.801056 
L 266.019532 210.325603 
L 267.105333 209.524166 
L 268.191134 210.903472 
L 269.276935 211.339623 
L 270.362736 211.968222 
L 271.448538 211.144274 
L 272.534339 213.284187 
L 273.62014 217.303473 
L 274.705941 215.401602 
L 275.791742 215.13319 
L 276.877543 215.605646 
L 277.963344 213.567873 
L 279.049146 216.744748 
L 280.134947 216.439303 
L 281.220748 218.366062 
L 282.306549 217.982862 
L 283.39235 218.894096 
L 284.478151 218.159069 
L 285.563953 220.332504 
L 286.649754 218.826742 
L 287.735555 219.00148 
L 288.821356 220.036398 
L 289.907157 221.273963 
L 290.992958 223.096371 
L 292.07876 221.0567 
L 293.164561 221.762887 
L 294.250362 221.879801 
L 295.336163 221.691162 
L 296.421964 224.037401 
L 297.507765 225.367255 
L 298.593566 225.41605 
L 299.679368 225.189042 
L 300.765169 225.356662 
L 301.85097 224.992486 
L 302.936771 226.962654 
L 304.022572 226.193329 
L 305.108373 225.789493 
L 306.194175 228.587396 
L 307.279976 228.536916 
L 308.365777 226.065667 
L 309.451578 229.094961 
L 310.537379 227.609596 
L 311.62318 228.103918 
L 312.708981 229.981522 
L 313.794783 229.270248 
L 314.880584 229.470697 
L 315.966385 229.068975 
L 317.052186 230.745151 
L 318.137987 233.182209 
L 319.223788 232.108216 
L 320.30959 231.30064 
L 321.395391 233.137403 
L 322.481192 232.367803 
L 323.566993 232.343035 
L 324.652794 232.019785 
L 325.738595 233.181887 
L 326.824396 233.953469 
L 327.910198 233.229082 
L 328.995999 234.897723 
L 330.0818 233.977461 
L 331.167601 234.997309 
L 332.253402 234.758227 
L 333.339203 236.581877 
L 334.425005 237.094028 
L 335.510806 236.891513 
L 336.596607 235.533762 
L 338.768209 237.929704 
L 339.85401 238.231494 
L 340.939811 237.987934 
L 342.025613 238.567188 
L 343.111414 239.487271 
L 344.197215 240.230538 
L 345.283016 238.491295 
L 346.368817 240.639055 
L 347.454618 240.041076 
L 348.54042 241.756816 
L 349.626221 240.640512 
L 350.712022 242.097383 
L 351.797823 241.553358 
L 352.883624 242.196216 
L 353.969425 243.864904 
L 355.055227 242.491748 
L 357.226829 243.280599 
L 358.31263 244.361698 
L 359.398431 245.11471 
L 360.484232 243.86285 
L 361.570033 244.914643 
L 362.655835 244.728059 
L 363.741636 243.810006 
L 364.827437 246.466454 
L 365.913238 245.621547 
L 366.999039 245.737398 
L 368.08484 247.117671 
L 369.170642 247.327364 
L 370.256443 245.67531 
L 371.342244 246.95029 
L 373.513846 247.629679 
L 374.599647 249.327315 
L 375.685448 247.954936 
L 376.77125 249.526749 
L 378.942852 248.745076 
L 380.028653 250.768148 
L 381.114454 250.075384 
L 382.200255 250.86181 
L 383.286057 250.172844 
L 384.371858 252.27674 
L 385.457659 250.925653 
L 386.54346 250.546669 
L 387.629261 250.602797 
L 388.715062 252.668789 
L 389.800863 252.842774 
L 390.886665 252.106648 
L 393.058267 254.002763 
L 394.144068 253.448313 
L 395.229869 253.7159 
L 396.31567 254.19939 
L 397.401472 254.043366 
L 398.487273 254.54828 
L 398.487273 254.54828 
" clip-path="url(#paab2bbd281)" style="fill: none; stroke: #1f77b4; stroke-width: 1.5; stroke-linecap: square"/>
   </g>
   <g id="line2d_28">
    <path d="M 73.832727 254.891079 
L 74.918528 257.427353 
L 76.00433 257.552459 
L 77.090131 258.606772 
L 79.261733 259.654063 
L 80.347534 260.740786 
L 81.433335 261.232051 
L 82.519137 260.552817 
L 83.604938 260.441731 
L 84.690739 261.815437 
L 85.77654 261.921817 
L 86.862341 263.351257 
L 87.948142 263.424653 
L 89.033943 263.651196 
L 90.119745 263.189882 
L 91.205546 264.10354 
L 92.291347 263.497417 
L 93.377148 264.209814 
L 94.462949 264.231214 
L 95.54875 264.76307 
L 96.634552 264.813716 
L 97.720353 265.414944 
L 98.806154 266.362482 
L 99.891955 266.787407 
L 100.977756 266.696707 
L 103.149358 267.269906 
L 104.23516 267.840789 
L 105.320961 267.367557 
L 106.406762 267.611416 
L 107.492563 269.267374 
L 108.578364 269.882836 
L 109.664165 268.7137 
L 110.749967 268.984715 
L 111.835768 268.020554 
L 112.921569 268.666994 
L 114.00737 270.102202 
L 115.093171 269.501774 
L 116.178972 270.453241 
L 117.264773 269.473878 
L 118.350575 270.808508 
L 120.522177 271.54811 
L 121.607978 272.126038 
L 122.693779 271.443663 
L 123.77958 271.325054 
L 124.865382 272.143951 
L 125.951183 272.320253 
L 127.036984 272.055675 
L 128.122785 272.610841 
L 129.208586 272.11738 
L 130.294387 272.143736 
L 132.46599 272.983532 
L 133.551791 272.679151 
L 134.637592 272.63543 
L 135.723393 274.152251 
L 136.809194 273.518779 
L 137.894995 273.322522 
L 138.980797 274.480385 
L 140.066598 273.108136 
L 141.152399 274.829382 
L 142.2382 275.082998 
L 143.324001 274.412661 
L 144.409802 274.621183 
L 145.495604 274.456166 
L 146.581405 274.460836 
L 147.667206 275.011954 
L 148.753007 275.424591 
L 149.838808 275.408744 
L 150.924609 275.6631 
L 152.01041 275.788421 
L 153.096212 275.483597 
L 154.182013 275.845934 
L 155.267814 275.998829 
L 156.353615 276.822862 
L 157.439416 276.565377 
L 159.611019 276.687593 
L 160.69682 277.202455 
L 161.782621 276.757347 
L 162.868422 276.664389 
L 163.954223 276.701386 
L 165.040024 277.442647 
L 166.125825 277.940838 
L 167.211627 277.501355 
L 168.297428 278.112781 
L 169.383229 277.950726 
L 170.46903 278.047314 
L 172.640632 278.033557 
L 173.726434 278.280795 
L 174.812235 277.93593 
L 175.898036 278.256887 
L 176.983837 278.421796 
L 178.069638 278.073694 
L 179.155439 279.135172 
L 180.24124 278.974682 
L 181.327042 279.178582 
L 182.412843 279.107455 
L 183.498644 279.890895 
L 184.584445 279.615736 
L 186.756047 279.768453 
L 187.841849 280.058838 
L 188.92765 279.893009 
L 191.099252 280.477231 
L 192.185053 280.321888 
L 193.270854 279.995712 
L 194.356656 280.520295 
L 195.442457 281.449418 
L 196.528258 281.064128 
L 197.614059 280.8932 
L 198.69986 281.695713 
L 199.785661 281.981918 
L 203.043065 282.189102 
L 204.128866 281.783284 
L 205.214667 282.594741 
L 206.300468 282.471439 
L 207.386269 281.921969 
L 208.472071 282.835113 
L 209.557872 282.919066 
L 210.643673 283.338236 
L 211.729474 283.913 
L 212.815275 282.850614 
L 213.901076 283.754491 
L 214.986877 283.659719 
L 216.072679 283.026964 
L 217.15848 283.731873 
L 220.415883 284.034439 
L 221.501684 284.595625 
L 222.587486 284.404921 
L 223.673287 284.711965 
L 224.759088 284.406521 
L 225.844889 285.873423 
L 226.93069 284.694852 
L 228.016491 285.821773 
L 229.102292 285.406807 
L 231.273895 286.179249 
L 232.359696 286.117544 
L 233.445497 286.293106 
L 234.531298 286.263167 
L 235.617099 286.080416 
L 236.702901 286.42349 
L 237.788702 287.311365 
L 238.874503 286.488599 
L 239.960304 286.990324 
L 241.046105 287.195096 
L 242.131906 287.717936 
L 243.217708 287.824161 
L 244.303509 287.318184 
L 245.38931 287.707988 
L 246.475111 287.858507 
L 247.560912 288.392261 
L 248.646713 288.289905 
L 249.732514 287.954128 
L 250.818316 288.155221 
L 251.904117 288.230588 
L 252.989918 288.032408 
L 254.075719 288.061726 
L 255.16152 289.057522 
L 256.247321 288.410951 
L 257.333123 288.745391 
L 258.418924 288.719392 
L 259.504725 288.557779 
L 260.590526 288.905762 
L 261.676327 288.531041 
L 262.762128 289.4206 
L 263.847929 288.854351 
L 264.933731 289.352506 
L 266.019532 288.990682 
L 267.105333 288.955644 
L 269.276935 289.567763 
L 270.362736 289.390482 
L 271.448538 289.583622 
L 272.534339 288.9887 
L 273.62014 289.678765 
L 274.705941 289.353688 
L 277.963344 290.164416 
L 279.049146 289.873422 
L 280.134947 290.070754 
L 281.220748 289.862352 
L 282.306549 290.16991 
L 284.478151 290.401182 
L 285.563953 290.624786 
L 286.649754 290.251534 
L 287.735555 290.601069 
L 289.907157 290.507694 
L 290.992958 290.832018 
L 292.07876 290.849263 
L 293.164561 291.240273 
L 294.250362 291.235687 
L 295.336163 290.843626 
L 296.421964 291.253373 
L 298.593566 291.564634 
L 299.679368 291.246674 
L 300.765169 291.670811 
L 301.85097 291.646461 
L 302.936771 292.082672 
L 304.022572 291.261781 
L 305.108373 292.398924 
L 306.194175 291.962164 
L 307.279976 291.778589 
L 308.365777 291.910729 
L 309.451578 292.172883 
L 310.537379 292.160499 
L 311.62318 291.960468 
L 312.708981 292.339034 
L 314.880584 292.201031 
L 315.966385 292.812027 
L 317.052186 292.739144 
L 318.137987 292.344193 
L 319.223788 292.868 
L 320.30959 292.583418 
L 321.395391 293.012763 
L 322.481192 292.851102 
L 323.566993 293.233501 
L 324.652794 293.436124 
L 325.738595 292.826119 
L 326.824396 293.200899 
L 327.910198 292.843674 
L 328.995999 292.759493 
L 330.0818 293.332048 
L 331.167601 293.051145 
L 332.253402 292.970332 
L 333.339203 293.103606 
L 334.425005 293.541227 
L 335.510806 293.518047 
L 336.596607 293.141368 
L 337.682408 293.460115 
L 338.768209 293.5054 
L 339.85401 293.673713 
L 340.939811 294.059205 
L 342.025613 293.984758 
L 343.111414 293.651668 
L 344.197215 294.01988 
L 346.368817 293.70641 
L 347.454618 294.194211 
L 348.54042 293.915995 
L 349.626221 294.290895 
L 350.712022 293.539519 
L 351.797823 293.864978 
L 352.883624 293.841882 
L 353.969425 294.197316 
L 355.055227 293.963823 
L 356.141028 293.89346 
L 357.226829 294.072186 
L 358.31263 294.112658 
L 359.398431 294.401706 
L 360.484232 294.325133 
L 362.655835 294.553742 
L 363.741636 294.258078 
L 364.827437 294.793946 
L 365.913238 294.963465 
L 366.999039 294.521498 
L 368.08484 294.82994 
L 369.170642 294.145643 
L 370.256443 294.960205 
L 371.342244 294.932583 
L 372.428045 295.109028 
L 373.513846 295.008547 
L 374.599647 295.271095 
L 376.77125 294.916508 
L 377.857051 294.918634 
L 378.942852 295.083089 
L 380.028653 294.775818 
L 381.114454 295.182126 
L 382.200255 294.903993 
L 383.286057 294.897891 
L 384.371858 295.099187 
L 385.457659 295.141152 
L 386.54346 295.462551 
L 387.629261 295.113327 
L 388.715062 295.185577 
L 389.800863 294.997655 
L 390.886665 295.488 
L 391.972466 295.176668 
L 393.058267 295.14649 
L 395.229869 295.339058 
L 396.31567 295.015473 
L 397.401472 295.454801 
L 398.487273 295.109553 
L 398.487273 295.109553 
" clip-path="url(#paab2bbd281)" style="fill: none; stroke: #ff7f0e; stroke-width: 1.5; stroke-linecap: square"/>
   </g>
   <g id="patch_3">
    <path d="M 57.6 307.584 
L 57.6 41.472 
" style="fill: none; stroke: #000000; stroke-width: 0.8; stroke-linejoin: miter; stroke-linecap: square"/>
   </g>
   <g id="patch_4">
    <path d="M 414.72 307.584 
L 414.72 41.472 
" style="fill: none; stroke: #000000; stroke-width: 0.8; stroke-linejoin: miter; stroke-linecap: square"/>
   </g>
   <g id="patch_5">
    <path d="M 57.6 307.584 
L 414.72 307.584 
" style="fill: none; stroke: #000000; stroke-width: 0.8; stroke-linejoin: miter; stroke-linecap: square"/>
   </g>
   <g id="patch_6">
    <path d="M 57.6 41.472 
L 414.72 41.472 
" style="fill: none; stroke: #000000; stroke-width: 0.8; stroke-linejoin: miter; stroke-linecap: square"/>
   </g>
   <g id="text_14">
    <!-- Semi-Supervised Training Loss -->
    <g transform="translate(144.914062 35.472) scale(0.12 -0.12)">
     <defs>
      <path id="DejaVuSans-53" d="M 3425 4513 
L 3425 3897 
Q 3066 4069 2747 4153 
Q 2428 4238 2131 4238 
Q 1616 4238 1336 4038 
Q 1056 3838 1056 3469 
Q 1056 3159 1242 3001 
Q 1428 2844 1947 2747 
L 2328 2669 
Q 3034 2534 3370 2195 
Q 3706 1856 3706 1288 
Q 3706 609 3251 259 
Q 2797 -91 1919 -91 
Q 1588 -91 1214 -16 
Q 841 59 441 206 
L 441 856 
Q 825 641 1194 531 
Q 1563 422 1919 422 
Q 2459 422 2753 634 
Q 3047 847 3047 1241 
Q 3047 1584 2836 1778 
Q 2625 1972 2144 2069 
L 1759 2144 
Q 1053 2284 737 2584 
Q 422 2884 422 3419 
Q 422 4038 858 4394 
Q 1294 4750 2059 4750 
Q 2388 4750 2728 4690 
Q 3069 4631 3425 4513 
z
" transform="scale(0.015625)"/>
      <path id="DejaVuSans-65" d="M 3597 1894 
L 3597 1613 
L 953 1613 
Q 991 1019 1311 708 
Q 1631 397 2203 397 
Q 2534 397 2845 478 
Q 3156 559 3463 722 
L 3463 178 
Q 3153 47 2828 -22 
Q 2503 -91 2169 -91 
Q 1331 -91 842 396 
Q 353 884 353 1716 
Q 353 2575 817 3079 
Q 1281 3584 2069 3584 
Q 2775 3584 3186 3129 
Q 3597 2675 3597 1894 
z
M 3022 2063 
Q 3016 2534 2758 2815 
Q 2500 3097 2075 3097 
Q 1594 3097 1305 2825 
Q 1016 2553 972 2059 
L 3022 2063 
z
" transform="scale(0.015625)"/>
      <path id="DejaVuSans-6d" d="M 3328 2828 
Q 3544 3216 3844 3400 
Q 4144 3584 4550 3584 
Q 5097 3584 5394 3201 
Q 5691 2819 5691 2113 
L 5691 0 
L 5113 0 
L 5113 2094 
Q 5113 2597 4934 2840 
Q 4756 3084 4391 3084 
Q 3944 3084 3684 2787 
Q 3425 2491 3425 1978 
L 3425 0 
L 2847 0 
L 2847 2094 
Q 2847 2600 2669 2842 
Q 2491 3084 2119 3084 
Q 1678 3084 1418 2786 
Q 1159 2488 1159 1978 
L 1159 0 
L 581 0 
L 581 3500 
L 1159 3500 
L 1159 2956 
Q 1356 3278 1631 3431 
Q 1906 3584 2284 3584 
Q 2666 3584 2933 3390 
Q 3200 3197 3328 2828 
z
" transform="scale(0.015625)"/>
      <path id="DejaVuSans-69" d="M 603 3500 
L 1178 3500 
L 1178 0 
L 603 0 
L 603 3500 
z
M 603 4863 
L 1178 4863 
L 1178 4134 
L 603 4134 
L 603 4863 
z
" transform="scale(0.015625)"/>
      <path id="DejaVuSans-2d" d="M 313 2009 
L 1997 2009 
L 1997 1497 
L 313 1497 
L 313 2009 
z
" transform="scale(0.015625)"/>
      <path id="DejaVuSans-75" d="M 544 1381 
L 544 3500 
L 1119 3500 
L 1119 1403 
Q 1119 906 1312 657 
Q 1506 409 1894 409 
Q 2359 409 2629 706 
Q 2900 1003 2900 1516 
L 2900 3500 
L 3475 3500 
L 3475 0 
L 2900 0 
L 2900 538 
Q 2691 219 2414 64 
Q 2138 -91 1772 -91 
Q 1169 -91 856 284 
Q 544 659 544 1381 
z
M 1991 3584 
L 1991 3584 
z
" transform="scale(0.015625)"/>
      <path id="DejaVuSans-70" d="M 1159 525 
L 1159 -1331 
L 581 -1331 
L 581 3500 
L 1159 3500 
L 1159 2969 
Q 1341 3281 1617 3432 
Q 1894 3584 2278 3584 
Q 2916 3584 3314 3078 
Q 3713 2572 3713 1747 
Q 3713 922 3314 415 
Q 2916 -91 2278 -91 
Q 1894 -91 1617 61 
Q 1341 213 1159 525 
z
M 3116 1747 
Q 3116 2381 2855 2742 
Q 2594 3103 2138 3103 
Q 1681 3103 1420 2742 
Q 1159 2381 1159 1747 
Q 1159 1113 1420 752 
Q 1681 391 2138 391 
Q 2594 391 2855 752 
Q 3116 1113 3116 1747 
z
" transform="scale(0.015625)"/>
      <path id="DejaVuSans-72" d="M 2631 2963 
Q 2534 3019 2420 3045 
Q 2306 3072 2169 3072 
Q 1681 3072 1420 2755 
Q 1159 2438 1159 1844 
L 1159 0 
L 581 0 
L 581 3500 
L 1159 3500 
L 1159 2956 
Q 1341 3275 1631 3429 
Q 1922 3584 2338 3584 
Q 2397 3584 2469 3576 
Q 2541 3569 2628 3553 
L 2631 2963 
z
" transform="scale(0.015625)"/>
      <path id="DejaVuSans-76" d="M 191 3500 
L 800 3500 
L 1894 563 
L 2988 3500 
L 3597 3500 
L 2284 0 
L 1503 0 
L 191 3500 
z
" transform="scale(0.015625)"/>
      <path id="DejaVuSans-73" d="M 2834 3397 
L 2834 2853 
Q 2591 2978 2328 3040 
Q 2066 3103 1784 3103 
Q 1356 3103 1142 2972 
Q 928 2841 928 2578 
Q 928 2378 1081 2264 
Q 1234 2150 1697 2047 
L 1894 2003 
Q 2506 1872 2764 1633 
Q 3022 1394 3022 966 
Q 3022 478 2636 193 
Q 2250 -91 1575 -91 
Q 1294 -91 989 -36 
Q 684 19 347 128 
L 347 722 
Q 666 556 975 473 
Q 1284 391 1588 391 
Q 1994 391 2212 530 
Q 2431 669 2431 922 
Q 2431 1156 2273 1281 
Q 2116 1406 1581 1522 
L 1381 1569 
Q 847 1681 609 1914 
Q 372 2147 372 2553 
Q 372 3047 722 3315 
Q 1072 3584 1716 3584 
Q 2034 3584 2315 3537 
Q 2597 3491 2834 3397 
z
" transform="scale(0.015625)"/>
      <path id="DejaVuSans-64" d="M 2906 2969 
L 2906 4863 
L 3481 4863 
L 3481 0 
L 2906 0 
L 2906 525 
Q 2725 213 2448 61 
Q 2172 -91 1784 -91 
Q 1150 -91 751 415 
Q 353 922 353 1747 
Q 353 2572 751 3078 
Q 1150 3584 1784 3584 
Q 2172 3584 2448 3432 
Q 2725 3281 2906 2969 
z
M 947 1747 
Q 947 1113 1208 752 
Q 1469 391 1925 391 
Q 2381 391 2643 752 
Q 2906 1113 2906 1747 
Q 2906 2381 2643 2742 
Q 2381 3103 1925 3103 
Q 1469 3103 1208 2742 
Q 947 2381 947 1747 
z
" transform="scale(0.015625)"/>
      <path id="DejaVuSans-20" transform="scale(0.015625)"/>
      <path id="DejaVuSans-54" d="M -19 4666 
L 3928 4666 
L 3928 4134 
L 2272 4134 
L 2272 0 
L 1638 0 
L 1638 4134 
L -19 4134 
L -19 4666 
z
" transform="scale(0.015625)"/>
      <path id="DejaVuSans-61" d="M 2194 1759 
Q 1497 1759 1228 1600 
Q 959 1441 959 1056 
Q 959 750 1161 570 
Q 1363 391 1709 391 
Q 2188 391 2477 730 
Q 2766 1069 2766 1631 
L 2766 1759 
L 2194 1759 
z
M 3341 1997 
L 3341 0 
L 2766 0 
L 2766 531 
Q 2569 213 2275 61 
Q 1981 -91 1556 -91 
Q 1019 -91 701 211 
Q 384 513 384 1019 
Q 384 1609 779 1909 
Q 1175 2209 1959 2209 
L 2766 2209 
L 2766 2266 
Q 2766 2663 2505 2880 
Q 2244 3097 1772 3097 
Q 1472 3097 1187 3025 
Q 903 2953 641 2809 
L 641 3341 
Q 956 3463 1253 3523 
Q 1550 3584 1831 3584 
Q 2591 3584 2966 3190 
Q 3341 2797 3341 1997 
z
" transform="scale(0.015625)"/>
      <path id="DejaVuSans-6e" d="M 3513 2113 
L 3513 0 
L 2938 0 
L 2938 2094 
Q 2938 2591 2744 2837 
Q 2550 3084 2163 3084 
Q 1697 3084 1428 2787 
Q 1159 2491 1159 1978 
L 1159 0 
L 581 0 
L 581 3500 
L 1159 3500 
L 1159 2956 
Q 1366 3272 1645 3428 
Q 1925 3584 2291 3584 
Q 2894 3584 3203 3211 
Q 3513 2838 3513 2113 
z
" transform="scale(0.015625)"/>
      <path id="DejaVuSans-67" d="M 2906 1791 
Q 2906 2416 2648 2759 
Q 2391 3103 1925 3103 
Q 1463 3103 1205 2759 
Q 947 2416 947 1791 
Q 947 1169 1205 825 
Q 1463 481 1925 481 
Q 2391 481 2648 825 
Q 2906 1169 2906 1791 
z
M 3481 434 
Q 3481 -459 3084 -895 
Q 2688 -1331 1869 -1331 
Q 1566 -1331 1297 -1286 
Q 1028 -1241 775 -1147 
L 775 -588 
Q 1028 -725 1275 -790 
Q 1522 -856 1778 -856 
Q 2344 -856 2625 -561 
Q 2906 -266 2906 331 
L 2906 616 
Q 2728 306 2450 153 
Q 2172 0 1784 0 
Q 1141 0 747 490 
Q 353 981 353 1791 
Q 353 2603 747 3093 
Q 1141 3584 1784 3584 
Q 2172 3584 2450 3431 
Q 2728 3278 2906 2969 
L 2906 3500 
L 3481 3500 
L 3481 434 
z
" transform="scale(0.015625)"/>
      <path id="DejaVuSans-4c" d="M 628 4666 
L 1259 4666 
L 1259 531 
L 3531 531 
L 3531 0 
L 628 0 
L 628 4666 
z
" transform="scale(0.015625)"/>
      <path id="DejaVuSans-6f" d="M 1959 3097 
Q 1497 3097 1228 2736 
Q 959 2375 959 1747 
Q 959 1119 1226 758 
Q 1494 397 1959 397 
Q 2419 397 2687 759 
Q 2956 1122 2956 1747 
Q 2956 2369 2687 2733 
Q 2419 3097 1959 3097 
z
M 1959 3584 
Q 2709 3584 3137 3096 
Q 3566 2609 3566 1747 
Q 3566 888 3137 398 
Q 2709 -91 1959 -91 
Q 1206 -91 779 398 
Q 353 888 353 1747 
Q 353 2609 779 3096 
Q 1206 3584 1959 3584 
z
" transform="scale(0.015625)"/>
     </defs>
     <use xlink:href="#DejaVuSans-53"/>
     <use xlink:href="#DejaVuSans-65" transform="translate(63.476562 0)"/>
     <use xlink:href="#DejaVuSans-6d" transform="translate(125 0)"/>
     <use xlink:href="#DejaVuSans-69" transform="translate(222.412109 0)"/>
     <use xlink:href="#DejaVuSans-2d" transform="translate(250.195312 0)"/>
     <use xlink:href="#DejaVuSans-53" transform="translate(286.279297 0)"/>
     <use xlink:href="#DejaVuSans-75" transform="translate(349.755859 0)"/>
     <use xlink:href="#DejaVuSans-70" transform="translate(413.134766 0)"/>
     <use xlink:href="#DejaVuSans-65" transform="translate(476.611328 0)"/>
     <use xlink:href="#DejaVuSans-72" transform="translate(538.134766 0)"/>
     <use xlink:href="#DejaVuSans-76" transform="translate(579.248047 0)"/>
     <use xlink:href="#DejaVuSans-69" transform="translate(638.427734 0)"/>
     <use xlink:href="#DejaVuSans-73" transform="translate(666.210938 0)"/>
     <use xlink:href="#DejaVuSans-65" transform="translate(718.310547 0)"/>
     <use xlink:href="#DejaVuSans-64" transform="translate(779.833984 0)"/>
     <use xlink:href="#DejaVuSans-20" transform="translate(843.310547 0)"/>
     <use xlink:href="#DejaVuSans-54" transform="translate(875.097656 0)"/>
     <use xlink:href="#DejaVuSans-72" transform="translate(921.431641 0)"/>
     <use xlink:href="#DejaVuSans-61" transform="translate(962.544922 0)"/>
     <use xlink:href="#DejaVuSans-69" transform="translate(1023.824219 0)"/>
     <use xlink:href="#DejaVuSans-6e" transform="translate(1051.607422 0)"/>
     <use xlink:href="#DejaVuSans-69" transform="translate(1114.986328 0)"/>
     <use xlink:href="#DejaVuSans-6e" transform="translate(1142.769531 0)"/>
     <use xlink:href="#DejaVuSans-67" transform="translate(1206.148438 0)"/>
     <use xlink:href="#DejaVuSans-20" transform="translate(1269.625 0)"/>
     <use xlink:href="#DejaVuSans-4c" transform="translate(1301.412109 0)"/>
     <use xlink:href="#DejaVuSans-6f" transform="translate(1355.375 0)"/>
     <use xlink:href="#DejaVuSans-73" transform="translate(1416.556641 0)"/>
     <use xlink:href="#DejaVuSans-73" transform="translate(1468.65625 0)"/>
    </g>
   </g>
   <g id="legend_1">
    <g id="patch_7">
     <path d="M 304.729375 78.82825 
L 407.72 78.82825 
Q 409.72 78.82825 409.72 76.82825 
L 409.72 48.472 
Q 409.72 46.472 407.72 46.472 
L 304.729375 46.472 
Q 302.729375 46.472 302.729375 48.472 
L 302.729375 76.82825 
Q 302.729375 78.82825 304.729375 78.82825 
z
" style="fill: #ffffff; opacity: 0.8; stroke: #cccccc; stroke-linejoin: miter"/>
    </g>
    <g id="line2d_29">
     <path d="M 306.729375 54.570437 
L 316.729375 54.570437 
L 326.729375 54.570437 
" style="fill: none; stroke: #1f77b4; stroke-width: 1.5; stroke-linecap: square"/>
    </g>
    <g id="text_15">
     <!-- Train (Pseudo) -->
     <g transform="translate(334.729375 58.070437) scale(0.1 -0.1)">
      <defs>
       <path id="DejaVuSans-28" d="M 1984 4856 
Q 1566 4138 1362 3434 
Q 1159 2731 1159 2009 
Q 1159 1288 1364 580 
Q 1569 -128 1984 -844 
L 1484 -844 
Q 1016 -109 783 600 
Q 550 1309 550 2009 
Q 550 2706 781 3412 
Q 1013 4119 1484 4856 
L 1984 4856 
z
" transform="scale(0.015625)"/>
       <path id="DejaVuSans-50" d="M 1259 4147 
L 1259 2394 
L 2053 2394 
Q 2494 2394 2734 2622 
Q 2975 2850 2975 3272 
Q 2975 3691 2734 3919 
Q 2494 4147 2053 4147 
L 1259 4147 
z
M 628 4666 
L 2053 4666 
Q 2838 4666 3239 4311 
Q 3641 3956 3641 3272 
Q 3641 2581 3239 2228 
Q 2838 1875 2053 1875 
L 1259 1875 
L 1259 0 
L 628 0 
L 628 4666 
z
" transform="scale(0.015625)"/>
       <path id="DejaVuSans-29" d="M 513 4856 
L 1013 4856 
Q 1481 4119 1714 3412 
Q 1947 2706 1947 2009 
Q 1947 1309 1714 600 
Q 1481 -109 1013 -844 
L 513 -844 
Q 928 -128 1133 580 
Q 1338 1288 1338 2009 
Q 1338 2731 1133 3434 
Q 928 4138 513 4856 
z
" transform="scale(0.015625)"/>
      </defs>
      <use xlink:href="#DejaVuSans-54"/>
      <use xlink:href="#DejaVuSans-72" transform="translate(46.333984 0)"/>
      <use xlink:href="#DejaVuSans-61" transform="translate(87.447266 0)"/>
      <use xlink:href="#DejaVuSans-69" transform="translate(148.726562 0)"/>
      <use xlink:href="#DejaVuSans-6e" transform="translate(176.509766 0)"/>
      <use xlink:href="#DejaVuSans-20" transform="translate(239.888672 0)"/>
      <use xlink:href="#DejaVuSans-28" transform="translate(271.675781 0)"/>
      <use xlink:href="#DejaVuSans-50" transform="translate(310.689453 0)"/>
      <use xlink:href="#DejaVuSans-73" transform="translate(369.242188 0)"/>
      <use xlink:href="#DejaVuSans-65" transform="translate(421.341797 0)"/>
      <use xlink:href="#DejaVuSans-75" transform="translate(482.865234 0)"/>
      <use xlink:href="#DejaVuSans-64" transform="translate(546.244141 0)"/>
      <use xlink:href="#DejaVuSans-6f" transform="translate(609.720703 0)"/>
      <use xlink:href="#DejaVuSans-29" transform="translate(670.902344 0)"/>
     </g>
    </g>
    <g id="line2d_30">
     <path d="M 306.729375 69.248562 
L 316.729375 69.248562 
L 326.729375 69.248562 
" style="fill: none; stroke: #ff7f0e; stroke-width: 1.5; stroke-linecap: square"/>
    </g>
    <g id="text_16">
     <!-- Val (Real) -->
     <g transform="translate(334.729375 72.748562) scale(0.1 -0.1)">
      <defs>
       <path id="DejaVuSans-56" d="M 1831 0 
L 50 4666 
L 709 4666 
L 2188 738 
L 3669 4666 
L 4325 4666 
L 2547 0 
L 1831 0 
z
" transform="scale(0.015625)"/>
       <path id="DejaVuSans-6c" d="M 603 4863 
L 1178 4863 
L 1178 0 
L 603 0 
L 603 4863 
z
" transform="scale(0.015625)"/>
       <path id="DejaVuSans-52" d="M 2841 2188 
Q 3044 2119 3236 1894 
Q 3428 1669 3622 1275 
L 4263 0 
L 3584 0 
L 2988 1197 
Q 2756 1666 2539 1819 
Q 2322 1972 1947 1972 
L 1259 1972 
L 1259 0 
L 628 0 
L 628 4666 
L 2053 4666 
Q 2853 4666 3247 4331 
Q 3641 3997 3641 3322 
Q 3641 2881 3436 2590 
Q 3231 2300 2841 2188 
z
M 1259 4147 
L 1259 2491 
L 2053 2491 
Q 2509 2491 2742 2702 
Q 2975 2913 2975 3322 
Q 2975 3731 2742 3939 
Q 2509 4147 2053 4147 
L 1259 4147 
z
" transform="scale(0.015625)"/>
      </defs>
      <use xlink:href="#DejaVuSans-56"/>
      <use xlink:href="#DejaVuSans-61" transform="translate(60.658203 0)"/>
      <use xlink:href="#DejaVuSans-6c" transform="translate(121.9375 0)"/>
      <use xlink:href="#DejaVuSans-20" transform="translate(149.720703 0)"/>
      <use xlink:href="#DejaVuSans-28" transform="translate(181.507812 0)"/>
      <use xlink:href="#DejaVuSans-52" transform="translate(220.521484 0)"/>
      <use xlink:href="#DejaVuSans-65" transform="translate(285.503906 0)"/>
      <use xlink:href="#DejaVuSans-61" transform="translate(347.027344 0)"/>
      <use xlink:href="#DejaVuSans-6c" transform="translate(408.306641 0)"/>
      <use xlink:href="#DejaVuSans-29" transform="translate(436.089844 0)"/>
     </g>
    </g>
   </g>
  </g>
 </g>
 <defs>
  <clipPath id="paab2bbd281">
   <rect x="57.6" y="41.472" width="357.12" height="266.112"/>
  </clipPath>
 </defs>
</svg>
