<?xml version="1.0" encoding="utf-8" standalone="no"?>
<!DOCTYPE svg PUBLIC "-//W3C//DTD SVG 1.1//EN"
  "http://www.w3.org/Graphics/SVG/1.1/DTD/svg11.dtd">
<svg xmlns:xlink="http://www.w3.org/1999/xlink" width="460.8pt" height="345.6pt" viewBox="0 0 460.8 345.6" xmlns="http://www.w3.org/2000/svg" version="1.1">
 <metadata>
  <rdf:RDF xmlns:dc="http://purl.org/dc/elements/1.1/" xmlns:cc="http://creativecommons.org/ns#" xmlns:rdf="http://www.w3.org/1999/02/22-rdf-syntax-ns#">
   <cc:Work>
    <dc:type rdf:resource="http://purl.org/dc/dcmitype/StillImage"/>
    <dc:date>2025-10-10T22:04:19.757843</dc:date>
    <dc:format>image/svg+xml</dc:format>
    <dc:creator>
     <cc:Agent>
      <dc:title>Matplotlib v3.10.6, https://matplotlib.org/</dc:title>
     </cc:Agent>
    </dc:creator>
   </cc:Work>
  </rdf:RDF>
 </metadata>
 <defs>
  <style type="text/css">*{stroke-linejoin: round; stroke-linecap: butt}</style>
 </defs>
 <g id="figure_1">
  <g id="patch_1">
   <path d="M 0 345.6 
L 460.8 345.6 
L 460.8 0 
L 0 0 
z
" style="fill: #ffffff"/>
  </g>
  <g id="axes_1">
   <g id="patch_2">
    <path d="M 57.6 307.584 
L 414.72 307.584 
L 414.72 41.472 
L 57.6 41.472 
z
" style="fill: #ffffff"/>
   </g>
   <g id="matplotlib.axis_1">
    <g id="xtick_1">
     <g id="line2d_1">
      <path d="M 73.832727 307.584 
L 73.832727 41.472 
" clip-path="url(#pd08db4022c)" style="fill: none; stroke: #b0b0b0; stroke-width: 0.8; stroke-linecap: square"/>
     </g>
     <g id="line2d_2">
      <defs>
       <path id="ma1b1cdfac6" d="M 0 0 
L 0 3.5 
" style="stroke: #000000; stroke-width: 0.8"/>
      </defs>
      <g>
       <use xlink:href="#ma1b1cdfac6" x="73.832727" y="307.584" style="stroke: #000000; stroke-width: 0.8"/>
      </g>
     </g>
     <g id="text_1">
      <!-- 0 -->
      <g transform="translate(70.651477 322.182437) scale(0.1 -0.1)">
       <defs>
        <path id="DejaVuSans-30" d="M 2034 4250 
Q 1547 4250 1301 3770 
Q 1056 3291 1056 2328 
Q 1056 1369 1301 889 
Q 1547 409 2034 409 
Q 2525 409 2770 889 
Q 3016 1369 3016 2328 
Q 3016 3291 2770 3770 
Q 2525 4250 2034 4250 
z
M 2034 4750 
Q 2819 4750 3233 4129 
Q 3647 3509 3647 2328 
Q 3647 1150 3233 529 
Q 2819 -91 2034 -91 
Q 1250 -91 836 529 
Q 422 1150 422 2328 
Q 422 3509 836 4129 
Q 1250 4750 2034 4750 
z
" transform="scale(0.015625)"/>
       </defs>
       <use xlink:href="#DejaVuSans-30"/>
      </g>
     </g>
    </g>
    <g id="xtick_2">
     <g id="line2d_3">
      <path d="M 128.122785 307.584 
L 128.122785 41.472 
" clip-path="url(#pd08db4022c)" style="fill: none; stroke: #b0b0b0; stroke-width: 0.8; stroke-linecap: square"/>
     </g>
     <g id="line2d_4">
      <g>
       <use xlink:href="#ma1b1cdfac6" x="128.122785" y="307.584" style="stroke: #000000; stroke-width: 0.8"/>
      </g>
     </g>
     <g id="text_2">
      <!-- 50 -->
      <g transform="translate(121.760285 322.182437) scale(0.1 -0.1)">
       <defs>
        <path id="DejaVuSans-35" d="M 691 4666 
L 3169 4666 
L 3169 4134 
L 1269 4134 
L 1269 2991 
Q 1406 3038 1543 3061 
Q 1681 3084 1819 3084 
Q 2600 3084 3056 2656 
Q 3513 2228 3513 1497 
Q 3513 744 3044 326 
Q 2575 -91 1722 -91 
Q 1428 -91 1123 -41 
Q 819 9 494 109 
L 494 744 
Q 775 591 1075 516 
Q 1375 441 1709 441 
Q 2250 441 2565 725 
Q 2881 1009 2881 1497 
Q 2881 1984 2565 2268 
Q 2250 2553 1709 2553 
Q 1456 2553 1204 2497 
Q 953 2441 691 2322 
L 691 4666 
z
" transform="scale(0.015625)"/>
       </defs>
       <use xlink:href="#DejaVuSans-35"/>
       <use xlink:href="#DejaVuSans-30" transform="translate(63.623047 0)"/>
      </g>
     </g>
    </g>
    <g id="xtick_3">
     <g id="line2d_5">
      <path d="M 182.412843 307.584 
L 182.412843 41.472 
" clip-path="url(#pd08db4022c)" style="fill: none; stroke: #b0b0b0; stroke-width: 0.8; stroke-linecap: square"/>
     </g>
     <g id="line2d_6">
      <g>
       <use xlink:href="#ma1b1cdfac6" x="182.412843" y="307.584" style="stroke: #000000; stroke-width: 0.8"/>
      </g>
     </g>
     <g id="text_3">
      <!-- 100 -->
      <g transform="translate(172.869093 322.182437) scale(0.1 -0.1)">
       <defs>
        <path id="DejaVuSans-31" d="M 794 531 
L 1825 531 
L 1825 4091 
L 703 3866 
L 703 4441 
L 1819 4666 
L 2450 4666 
L 2450 531 
L 3481 531 
L 3481 0 
L 794 0 
L 794 531 
z
" transform="scale(0.015625)"/>
       </defs>
       <use xlink:href="#DejaVuSans-31"/>
       <use xlink:href="#DejaVuSans-30" transform="translate(63.623047 0)"/>
       <use xlink:href="#DejaVuSans-30" transform="translate(127.246094 0)"/>
      </g>
     </g>
    </g>
    <g id="xtick_4">
     <g id="line2d_7">
      <path d="M 236.702901 307.584 
L 236.702901 41.472 
" clip-path="url(#pd08db4022c)" style="fill: none; stroke: #b0b0b0; stroke-width: 0.8; stroke-linecap: square"/>
     </g>
     <g id="line2d_8">
      <g>
       <use xlink:href="#ma1b1cdfac6" x="236.702901" y="307.584" style="stroke: #000000; stroke-width: 0.8"/>
      </g>
     </g>
     <g id="text_4">
      <!-- 150 -->
      <g transform="translate(227.159151 322.182437) scale(0.1 -0.1)">
       <use xlink:href="#DejaVuSans-31"/>
       <use xlink:href="#DejaVuSans-35" transform="translate(63.623047 0)"/>
       <use xlink:href="#DejaVuSans-30" transform="translate(127.246094 0)"/>
      </g>
     </g>
    </g>
    <g id="xtick_5">
     <g id="line2d_9">
      <path d="M 290.992958 307.584 
L 290.992958 41.472 
" clip-path="url(#pd08db4022c)" style="fill: none; stroke: #b0b0b0; stroke-width: 0.8; stroke-linecap: square"/>
     </g>
     <g id="line2d_10">
      <g>
       <use xlink:href="#ma1b1cdfac6" x="290.992958" y="307.584" style="stroke: #000000; stroke-width: 0.8"/>
      </g>
     </g>
     <g id="text_5">
      <!-- 200 -->
      <g transform="translate(281.449208 322.182437) scale(0.1 -0.1)">
       <defs>
        <path id="DejaVuSans-32" d="M 1228 531 
L 3431 531 
L 3431 0 
L 469 0 
L 469 531 
Q 828 903 1448 1529 
Q 2069 2156 2228 2338 
Q 2531 2678 2651 2914 
Q 2772 3150 2772 3378 
Q 2772 3750 2511 3984 
Q 2250 4219 1831 4219 
Q 1534 4219 1204 4116 
Q 875 4013 500 3803 
L 500 4441 
Q 881 4594 1212 4672 
Q 1544 4750 1819 4750 
Q 2544 4750 2975 4387 
Q 3406 4025 3406 3419 
Q 3406 3131 3298 2873 
Q 3191 2616 2906 2266 
Q 2828 2175 2409 1742 
Q 1991 1309 1228 531 
z
" transform="scale(0.015625)"/>
       </defs>
       <use xlink:href="#DejaVuSans-32"/>
       <use xlink:href="#DejaVuSans-30" transform="translate(63.623047 0)"/>
       <use xlink:href="#DejaVuSans-30" transform="translate(127.246094 0)"/>
      </g>
     </g>
    </g>
    <g id="xtick_6">
     <g id="line2d_11">
      <path d="M 345.283016 307.584 
L 345.283016 41.472 
" clip-path="url(#pd08db4022c)" style="fill: none; stroke: #b0b0b0; stroke-width: 0.8; stroke-linecap: square"/>
     </g>
     <g id="line2d_12">
      <g>
       <use xlink:href="#ma1b1cdfac6" x="345.283016" y="307.584" style="stroke: #000000; stroke-width: 0.8"/>
      </g>
     </g>
     <g id="text_6">
      <!-- 250 -->
      <g transform="translate(335.739266 322.182437) scale(0.1 -0.1)">
       <use xlink:href="#DejaVuSans-32"/>
       <use xlink:href="#DejaVuSans-35" transform="translate(63.623047 0)"/>
       <use xlink:href="#DejaVuSans-30" transform="translate(127.246094 0)"/>
      </g>
     </g>
    </g>
    <g id="xtick_7">
     <g id="line2d_13">
      <path d="M 399.573074 307.584 
L 399.573074 41.472 
" clip-path="url(#pd08db4022c)" style="fill: none; stroke: #b0b0b0; stroke-width: 0.8; stroke-linecap: square"/>
     </g>
     <g id="line2d_14">
      <g>
       <use xlink:href="#ma1b1cdfac6" x="399.573074" y="307.584" style="stroke: #000000; stroke-width: 0.8"/>
      </g>
     </g>
     <g id="text_7">
      <!-- 300 -->
      <g transform="translate(390.029324 322.182437) scale(0.1 -0.1)">
       <defs>
        <path id="DejaVuSans-33" d="M 2597 2516 
Q 3050 2419 3304 2112 
Q 3559 1806 3559 1356 
Q 3559 666 3084 287 
Q 2609 -91 1734 -91 
Q 1441 -91 1130 -33 
Q 819 25 488 141 
L 488 750 
Q 750 597 1062 519 
Q 1375 441 1716 441 
Q 2309 441 2620 675 
Q 2931 909 2931 1356 
Q 2931 1769 2642 2001 
Q 2353 2234 1838 2234 
L 1294 2234 
L 1294 2753 
L 1863 2753 
Q 2328 2753 2575 2939 
Q 2822 3125 2822 3475 
Q 2822 3834 2567 4026 
Q 2313 4219 1838 4219 
Q 1578 4219 1281 4162 
Q 984 4106 628 3988 
L 628 4550 
Q 988 4650 1302 4700 
Q 1616 4750 1894 4750 
Q 2613 4750 3031 4423 
Q 3450 4097 3450 3541 
Q 3450 3153 3228 2886 
Q 3006 2619 2597 2516 
z
" transform="scale(0.015625)"/>
       </defs>
       <use xlink:href="#DejaVuSans-33"/>
       <use xlink:href="#DejaVuSans-30" transform="translate(63.623047 0)"/>
       <use xlink:href="#DejaVuSans-30" transform="translate(127.246094 0)"/>
      </g>
     </g>
    </g>
   </g>
   <g id="matplotlib.axis_2">
    <g id="ytick_1">
     <g id="line2d_15">
      <path d="M 57.6 302.024736 
L 414.72 302.024736 
" clip-path="url(#pd08db4022c)" style="fill: none; stroke: #b0b0b0; stroke-width: 0.8; stroke-linecap: square"/>
     </g>
     <g id="line2d_16">
      <defs>
       <path id="meec9565e12" d="M 0 0 
L -3.5 0 
" style="stroke: #000000; stroke-width: 0.8"/>
      </defs>
      <g>
       <use xlink:href="#meec9565e12" x="57.6" y="302.024736" style="stroke: #000000; stroke-width: 0.8"/>
      </g>
     </g>
     <g id="text_8">
      <!-- 10 -->
      <g transform="translate(37.875 305.823954) scale(0.1 -0.1)">
       <use xlink:href="#DejaVuSans-31"/>
       <use xlink:href="#DejaVuSans-30" transform="translate(63.623047 0)"/>
      </g>
     </g>
    </g>
    <g id="ytick_2">
     <g id="line2d_17">
      <path d="M 57.6 268.648239 
L 414.72 268.648239 
" clip-path="url(#pd08db4022c)" style="fill: none; stroke: #b0b0b0; stroke-width: 0.8; stroke-linecap: square"/>
     </g>
     <g id="line2d_18">
      <g>
       <use xlink:href="#meec9565e12" x="57.6" y="268.648239" style="stroke: #000000; stroke-width: 0.8"/>
      </g>
     </g>
     <g id="text_9">
      <!-- 15 -->
      <g transform="translate(37.875 272.447458) scale(0.1 -0.1)">
       <use xlink:href="#DejaVuSans-31"/>
       <use xlink:href="#DejaVuSans-35" transform="translate(63.623047 0)"/>
      </g>
     </g>
    </g>
    <g id="ytick_3">
     <g id="line2d_19">
      <path d="M 57.6 235.271743 
L 414.72 235.271743 
" clip-path="url(#pd08db4022c)" style="fill: none; stroke: #b0b0b0; stroke-width: 0.8; stroke-linecap: square"/>
     </g>
     <g id="line2d_20">
      <g>
       <use xlink:href="#meec9565e12" x="57.6" y="235.271743" style="stroke: #000000; stroke-width: 0.8"/>
      </g>
     </g>
     <g id="text_10">
      <!-- 20 -->
      <g transform="translate(37.875 239.070961) scale(0.1 -0.1)">
       <use xlink:href="#DejaVuSans-32"/>
       <use xlink:href="#DejaVuSans-30" transform="translate(63.623047 0)"/>
      </g>
     </g>
    </g>
    <g id="ytick_4">
     <g id="line2d_21">
      <path d="M 57.6 201.895246 
L 414.72 201.895246 
" clip-path="url(#pd08db4022c)" style="fill: none; stroke: #b0b0b0; stroke-width: 0.8; stroke-linecap: square"/>
     </g>
     <g id="line2d_22">
      <g>
       <use xlink:href="#meec9565e12" x="57.6" y="201.895246" style="stroke: #000000; stroke-width: 0.8"/>
      </g>
     </g>
     <g id="text_11">
      <!-- 25 -->
      <g transform="translate(37.875 205.694465) scale(0.1 -0.1)">
       <use xlink:href="#DejaVuSans-32"/>
       <use xlink:href="#DejaVuSans-35" transform="translate(63.623047 0)"/>
      </g>
     </g>
    </g>
    <g id="ytick_5">
     <g id="line2d_23">
      <path d="M 57.6 168.51875 
L 414.72 168.51875 
" clip-path="url(#pd08db4022c)" style="fill: none; stroke: #b0b0b0; stroke-width: 0.8; stroke-linecap: square"/>
     </g>
     <g id="line2d_24">
      <g>
       <use xlink:href="#meec9565e12" x="57.6" y="168.51875" style="stroke: #000000; stroke-width: 0.8"/>
      </g>
     </g>
     <g id="text_12">
      <!-- 30 -->
      <g transform="translate(37.875 172.317969) scale(0.1 -0.1)">
       <use xlink:href="#DejaVuSans-33"/>
       <use xlink:href="#DejaVuSans-30" transform="translate(63.623047 0)"/>
      </g>
     </g>
    </g>
    <g id="ytick_6">
     <g id="line2d_25">
      <path d="M 57.6 135.142253 
L 414.72 135.142253 
" clip-path="url(#pd08db4022c)" style="fill: none; stroke: #b0b0b0; stroke-width: 0.8; stroke-linecap: square"/>
     </g>
     <g id="line2d_26">
      <g>
       <use xlink:href="#meec9565e12" x="57.6" y="135.142253" style="stroke: #000000; stroke-width: 0.8"/>
      </g>
     </g>
     <g id="text_13">
      <!-- 35 -->
      <g transform="translate(37.875 138.941472) scale(0.1 -0.1)">
       <use xlink:href="#DejaVuSans-33"/>
       <use xlink:href="#DejaVuSans-35" transform="translate(63.623047 0)"/>
      </g>
     </g>
    </g>
    <g id="ytick_7">
     <g id="line2d_27">
      <path d="M 57.6 101.765757 
L 414.72 101.765757 
" clip-path="url(#pd08db4022c)" style="fill: none; stroke: #b0b0b0; stroke-width: 0.8; stroke-linecap: square"/>
     </g>
     <g id="line2d_28">
      <g>
       <use xlink:href="#meec9565e12" x="57.6" y="101.765757" style="stroke: #000000; stroke-width: 0.8"/>
      </g>
     </g>
     <g id="text_14">
      <!-- 40 -->
      <g transform="translate(37.875 105.564976) scale(0.1 -0.1)">
       <defs>
        <path id="DejaVuSans-34" d="M 2419 4116 
L 825 1625 
L 2419 1625 
L 2419 4116 
z
M 2253 4666 
L 3047 4666 
L 3047 1625 
L 3713 1625 
L 3713 1100 
L 3047 1100 
L 3047 0 
L 2419 0 
L 2419 1100 
L 313 1100 
L 313 1709 
L 2253 4666 
z
" transform="scale(0.015625)"/>
       </defs>
       <use xlink:href="#DejaVuSans-34"/>
       <use xlink:href="#DejaVuSans-30" transform="translate(63.623047 0)"/>
      </g>
     </g>
    </g>
    <g id="ytick_8">
     <g id="line2d_29">
      <path d="M 57.6 68.389261 
L 414.72 68.389261 
" clip-path="url(#pd08db4022c)" style="fill: none; stroke: #b0b0b0; stroke-width: 0.8; stroke-linecap: square"/>
     </g>
     <g id="line2d_30">
      <g>
       <use xlink:href="#meec9565e12" x="57.6" y="68.389261" style="stroke: #000000; stroke-width: 0.8"/>
      </g>
     </g>
     <g id="text_15">
      <!-- 45 -->
      <g transform="translate(37.875 72.188479) scale(0.1 -0.1)">
       <use xlink:href="#DejaVuSans-34"/>
       <use xlink:href="#DejaVuSans-35" transform="translate(63.623047 0)"/>
      </g>
     </g>
    </g>
   </g>
   <g id="line2d_31">
    <path d="M 73.832727 53.568 
L 74.918528 57.82906 
L 76.00433 58.774063 
L 77.090131 70.996698 
L 78.175932 72.880899 
L 79.261733 80.88589 
L 80.347534 82.862043 
L 81.433335 89.22184 
L 82.519137 92.068005 
L 83.604938 100.044705 
L 84.690739 100.185166 
L 85.77654 100.951207 
L 86.862341 109.152986 
L 87.948142 110.093457 
L 89.033943 115.917257 
L 91.205546 126.065574 
L 92.291347 128.966817 
L 93.377148 131.438479 
L 94.462949 137.16526 
L 95.54875 136.884797 
L 96.634552 141.00807 
L 97.720353 143.184957 
L 98.806154 146.350749 
L 99.891955 148.143788 
L 100.977756 151.70835 
L 102.063557 153.701564 
L 103.149358 158.170806 
L 105.320961 163.046433 
L 106.406762 166.413035 
L 107.492563 169.269321 
L 108.578364 169.82145 
L 109.664165 172.953578 
L 110.749967 175.305557 
L 111.835768 175.798303 
L 112.921569 181.458916 
L 114.00737 179.28539 
L 115.093171 183.06063 
L 116.178972 183.34453 
L 117.264773 185.657282 
L 118.350575 186.281844 
L 120.522177 191.23711 
L 121.607978 190.594138 
L 122.693779 194.566624 
L 124.865382 196.752487 
L 125.951183 199.615356 
L 127.036984 199.055194 
L 128.122785 200.598467 
L 129.208586 203.089188 
L 130.294387 202.851518 
L 131.380189 202.983193 
L 132.46599 205.50502 
L 133.551791 205.108796 
L 134.637592 207.895132 
L 135.723393 208.400916 
L 136.809194 210.167485 
L 137.894995 211.038502 
L 138.980797 214.023421 
L 140.066598 213.352285 
L 141.152399 213.876149 
L 142.2382 217.893146 
L 143.324001 215.812182 
L 144.409802 219.13612 
L 145.495604 220.146694 
L 146.581405 217.333429 
L 147.667206 220.090647 
L 148.753007 222.275708 
L 150.924609 223.50791 
L 152.01041 223.482701 
L 153.096212 223.312358 
L 154.182013 224.286798 
L 155.267814 226.820885 
L 156.353615 226.908953 
L 157.439416 228.317164 
L 158.525217 228.16732 
L 159.611019 230.01824 
L 160.69682 229.863124 
L 161.782621 230.792913 
L 162.868422 230.267165 
L 163.954223 233.11487 
L 165.040024 232.983615 
L 166.125825 233.141111 
L 167.211627 235.953612 
L 168.297428 233.992839 
L 170.46903 236.239486 
L 171.554831 235.694029 
L 172.640632 236.816162 
L 173.726434 237.293031 
L 174.812235 237.977433 
L 175.898036 237.836833 
L 176.983837 240.810776 
L 178.069638 241.112057 
L 179.155439 241.545 
L 180.24124 240.730857 
L 181.327042 240.87925 
L 182.412843 242.394653 
L 183.498644 243.182185 
L 184.584445 242.111974 
L 185.670246 242.394092 
L 186.756047 244.735517 
L 187.841849 245.349753 
L 188.92765 244.47927 
L 190.013451 246.379807 
L 191.099252 245.372276 
L 192.185053 246.137986 
L 193.270854 247.457225 
L 196.528258 249.564506 
L 197.614059 248.781047 
L 198.69986 249.148254 
L 199.785661 249.739712 
L 200.871462 250.888201 
L 201.957264 251.81734 
L 203.043065 251.41624 
L 204.128866 251.626982 
L 205.214667 252.454354 
L 206.300468 252.557204 
L 207.386269 253.341274 
L 208.472071 253.795492 
L 209.557872 254.092431 
L 210.643673 254.828666 
L 211.729474 255.182135 
L 212.815275 254.619973 
L 213.901076 255.903957 
L 214.986877 256.512412 
L 216.072679 256.756322 
L 217.15848 257.89493 
L 218.244281 256.979618 
L 219.330082 258.146606 
L 220.415883 257.549011 
L 221.501684 259.094462 
L 222.587486 258.239601 
L 223.673287 259.126903 
L 224.759088 261.084696 
L 226.93069 259.802113 
L 228.016491 261.058977 
L 229.102292 260.695093 
L 230.188094 260.754196 
L 231.273895 260.217371 
L 232.359696 261.515207 
L 233.445497 262.520198 
L 234.531298 263.207752 
L 235.617099 263.317503 
L 236.702901 264.578919 
L 237.788702 264.31136 
L 238.874503 263.110892 
L 239.960304 264.432621 
L 241.046105 263.989052 
L 242.131906 265.646253 
L 243.217708 264.64039 
L 244.303509 266.351975 
L 245.38931 266.662957 
L 246.475111 267.340822 
L 247.560912 266.373639 
L 248.646713 267.028045 
L 249.732514 266.522293 
L 250.818316 267.663492 
L 251.904117 268.068049 
L 252.989918 269.392712 
L 254.075719 269.166538 
L 255.16152 267.909725 
L 256.247321 268.531893 
L 257.333123 268.499706 
L 258.418924 270.766317 
L 259.504725 270.065942 
L 260.590526 269.744596 
L 261.676327 270.350989 
L 262.762128 270.397194 
L 263.847929 269.137153 
L 264.933731 270.591581 
L 266.019532 271.649468 
L 267.105333 272.3434 
L 268.191134 271.139718 
L 269.276935 271.696749 
L 270.362736 272.035761 
L 271.448538 272.809122 
L 272.534339 273.895166 
L 273.62014 274.209662 
L 275.791742 273.140972 
L 276.877543 275.656413 
L 277.963344 274.471307 
L 279.049146 274.19502 
L 280.134947 274.996959 
L 281.220748 273.918657 
L 282.306549 275.758932 
L 283.39235 275.842793 
L 284.478151 276.509746 
L 286.649754 276.774561 
L 287.735555 277.740917 
L 288.821356 277.88237 
L 289.907157 277.687798 
L 290.992958 277.124389 
L 292.07876 277.078381 
L 293.164561 278.020864 
L 294.250362 278.690504 
L 295.336163 277.646171 
L 296.421964 278.470907 
L 297.507765 278.913832 
L 298.593566 279.512305 
L 299.679368 279.142469 
L 300.765169 281.196103 
L 301.85097 280.073282 
L 302.936771 280.236145 
L 304.022572 280.116947 
L 305.108373 280.19257 
L 307.279976 281.780329 
L 308.365777 282.573247 
L 309.451578 282.023175 
L 312.708981 281.796289 
L 313.794783 282.053185 
L 314.880584 281.821683 
L 315.966385 282.709309 
L 317.052186 283.279721 
L 319.223788 282.721997 
L 320.30959 284.267059 
L 321.395391 284.204824 
L 322.481192 283.200445 
L 323.566993 284.167507 
L 324.652794 284.568524 
L 325.738595 284.222172 
L 326.824396 284.27142 
L 327.910198 285.079489 
L 328.995999 285.304632 
L 330.0818 284.700327 
L 331.167601 285.155176 
L 332.253402 284.775828 
L 333.339203 284.73245 
L 334.425005 285.792316 
L 335.510806 286.004593 
L 336.596607 286.590041 
L 337.682408 285.560846 
L 338.768209 286.461555 
L 339.85401 286.639461 
L 340.939811 286.64717 
L 342.025613 286.823892 
L 343.111414 286.196472 
L 344.197215 287.566385 
L 345.283016 287.675678 
L 347.454618 288.295484 
L 348.54042 288.205951 
L 349.626221 288.463548 
L 350.712022 287.795869 
L 351.797823 289.073684 
L 352.883624 289.842195 
L 353.969425 289.519926 
L 355.055227 289.698837 
L 358.31263 289.43688 
L 359.398431 290.478584 
L 360.484232 289.973845 
L 361.570033 289.691236 
L 362.655835 289.911266 
L 363.741636 289.821098 
L 364.827437 290.956077 
L 365.913238 289.602952 
L 366.999039 290.494092 
L 368.08484 289.572694 
L 369.170642 291.511809 
L 370.256443 290.469214 
L 371.342244 291.204258 
L 372.428045 292.310329 
L 374.599647 292.357145 
L 375.685448 291.229041 
L 376.77125 293.004599 
L 377.857051 292.036086 
L 378.942852 292.474472 
L 380.028653 292.790783 
L 382.200255 292.634056 
L 383.286057 292.594568 
L 384.371858 293.582962 
L 385.457659 293.364708 
L 386.54346 293.767133 
L 387.629261 293.899585 
L 388.715062 294.311412 
L 389.800863 294.200846 
L 390.886665 293.688034 
L 391.972466 294.589876 
L 393.058267 293.863018 
L 394.144068 294.110219 
L 395.229869 293.806704 
L 396.31567 295.00798 
L 397.401472 294.853794 
L 398.487273 294.894931 
L 398.487273 294.894931 
" clip-path="url(#pd08db4022c)" style="fill: none; stroke: #1f77b4; stroke-width: 1.5; stroke-linecap: square"/>
   </g>
   <g id="line2d_32">
    <path d="M 73.832727 275.466138 
L 74.918528 275.684335 
L 76.00433 274.877354 
L 77.090131 275.37185 
L 78.175932 275.04009 
L 79.261733 275.604727 
L 80.347534 275.49201 
L 81.433335 276.323806 
L 82.519137 276.232663 
L 83.604938 275.663881 
L 84.690739 276.055737 
L 85.77654 276.22009 
L 86.862341 276.631108 
L 87.948142 276.671011 
L 90.119745 276.141495 
L 91.205546 276.608038 
L 94.462949 276.129915 
L 95.54875 276.504538 
L 96.634552 277.384907 
L 97.720353 276.91804 
L 99.891955 277.525145 
L 100.977756 277.116654 
L 102.063557 277.157142 
L 103.149358 277.324933 
L 104.23516 277.143118 
L 105.320961 278.002403 
L 106.406762 278.224502 
L 107.492563 277.899642 
L 108.578364 277.866506 
L 109.664165 278.344241 
L 110.749967 277.950284 
L 111.835768 278.909038 
L 112.921569 278.378732 
L 114.00737 278.156811 
L 115.093171 278.620935 
L 116.178972 278.273527 
L 117.264773 278.554334 
L 118.350575 278.964365 
L 119.436376 279.14548 
L 120.522177 278.995196 
L 121.607978 279.342732 
L 122.693779 278.971158 
L 123.77958 279.213756 
L 124.865382 278.891258 
L 125.951183 279.543441 
L 127.036984 279.22391 
L 128.122785 279.930638 
L 129.208586 279.104578 
L 130.294387 279.689664 
L 131.380189 279.915621 
L 132.46599 279.723486 
L 133.551791 279.963194 
L 134.637592 279.737829 
L 135.723393 280.593644 
L 136.809194 280.414669 
L 137.894995 280.49956 
L 138.980797 280.231173 
L 140.066598 280.677784 
L 141.152399 280.686372 
L 142.2382 280.446983 
L 143.324001 280.966237 
L 144.409802 280.658782 
L 145.495604 279.869868 
L 146.581405 281.381336 
L 147.667206 280.82237 
L 148.753007 281.166921 
L 149.838808 280.560108 
L 150.924609 281.313487 
L 152.01041 281.354452 
L 153.096212 281.140992 
L 154.182013 281.075415 
L 155.267814 281.459912 
L 156.353615 280.961533 
L 157.439416 282.171912 
L 158.525217 280.825413 
L 160.69682 281.483753 
L 161.782621 281.450198 
L 162.868422 282.270178 
L 163.954223 281.521638 
L 165.040024 282.195123 
L 166.125825 282.289066 
L 167.211627 282.211108 
L 168.297428 281.994954 
L 169.383229 282.467558 
L 171.554831 282.207791 
L 173.726434 282.653664 
L 175.898036 282.055839 
L 176.983837 282.371806 
L 178.069638 282.499299 
L 179.155439 281.654638 
L 180.24124 282.254989 
L 181.327042 282.634635 
L 182.412843 282.69659 
L 184.584445 282.366911 
L 186.756047 283.41633 
L 187.841849 282.807964 
L 188.92765 283.018993 
L 190.013451 282.974125 
L 192.185053 283.42332 
L 193.270854 283.047545 
L 194.356656 283.713575 
L 195.442457 283.164737 
L 196.528258 284.20844 
L 197.614059 283.062263 
L 198.69986 283.552526 
L 199.785661 283.712944 
L 200.871462 283.099281 
L 201.957264 283.991269 
L 203.043065 283.661761 
L 204.128866 283.767572 
L 205.214667 284.899222 
L 206.300468 284.495308 
L 207.386269 284.578207 
L 208.472071 284.181989 
L 209.557872 284.393234 
L 210.643673 284.423531 
L 211.729474 284.594103 
L 212.815275 284.025034 
L 213.901076 284.440802 
L 214.986877 285.190622 
L 216.072679 285.054592 
L 217.15848 284.697424 
L 218.244281 284.553405 
L 219.330082 285.038371 
L 220.415883 285.386938 
L 221.501684 285.239169 
L 222.587486 284.713396 
L 223.673287 285.199967 
L 224.759088 285.300182 
L 225.844889 285.543238 
L 226.93069 285.122906 
L 228.016491 285.234866 
L 229.102292 285.029038 
L 231.273895 285.5665 
L 232.359696 285.598534 
L 233.445497 285.145926 
L 234.531298 286.304135 
L 235.617099 285.95968 
L 236.702901 285.738109 
L 237.788702 285.870428 
L 238.874503 286.446105 
L 239.960304 286.515132 
L 242.131906 286.261514 
L 243.217708 286.633833 
L 244.303509 286.825656 
L 245.38931 286.758379 
L 247.560912 286.410404 
L 248.646713 287.28461 
L 249.732514 287.084703 
L 250.818316 286.714963 
L 251.904117 287.062499 
L 252.989918 287.118991 
L 254.075719 286.730629 
L 255.16152 287.657566 
L 256.247321 287.324398 
L 257.333123 287.67844 
L 258.418924 286.921968 
L 259.504725 287.883924 
L 260.590526 287.603098 
L 261.676327 286.761677 
L 262.762128 287.840259 
L 263.847929 287.98948 
L 264.933731 287.804005 
L 266.019532 288.127369 
L 267.105333 287.810632 
L 268.191134 288.611183 
L 269.276935 288.09846 
L 270.362736 287.72935 
L 271.448538 287.734672 
L 272.534339 288.043999 
L 273.62014 288.506315 
L 274.705941 288.281389 
L 275.791742 288.8288 
L 276.877543 288.961711 
L 277.963344 288.428814 
L 279.049146 288.715122 
L 280.134947 288.682012 
L 282.306549 289.421519 
L 283.39235 288.878819 
L 284.478151 289.376791 
L 285.563953 289.170588 
L 286.649754 289.731476 
L 288.821356 289.108436 
L 290.992958 289.655631 
L 292.07876 289.851324 
L 293.164561 289.403961 
L 294.250362 289.844315 
L 295.336163 289.953836 
L 296.421964 289.543652 
L 297.507765 289.703134 
L 298.593566 289.587559 
L 299.679368 289.920695 
L 300.765169 290.099161 
L 301.85097 289.81477 
L 302.936771 290.136829 
L 305.108373 290.465216 
L 306.194175 290.769412 
L 308.365777 290.773231 
L 309.451578 291.045228 
L 311.62318 290.504666 
L 312.708981 291.434245 
L 313.794783 291.414364 
L 314.880584 291.027969 
L 315.966385 291.26282 
L 317.052186 291.908427 
L 318.137987 291.39764 
L 319.223788 291.504061 
L 321.395391 291.227876 
L 322.481192 291.751141 
L 323.566993 291.610152 
L 324.652794 291.617613 
L 325.738595 291.83553 
L 326.824396 291.723519 
L 327.910198 291.908567 
L 328.995999 291.585687 
L 330.0818 292.050747 
L 332.253402 291.69533 
L 333.339203 292.147212 
L 334.425005 291.804151 
L 335.510806 292.145162 
L 336.596607 292.161797 
L 337.682408 292.416738 
L 338.768209 292.799313 
L 339.85401 292.748219 
L 340.939811 293.121614 
L 342.025613 292.9755 
L 343.111414 292.377676 
L 344.197215 293.089204 
L 345.283016 292.587253 
L 346.368817 292.444571 
L 347.454618 293.263692 
L 348.54042 293.63773 
L 349.626221 292.967988 
L 350.712022 293.218798 
L 351.797823 293.232173 
L 352.883624 293.518538 
L 353.969425 293.318542 
L 355.055227 293.275278 
L 356.141028 293.348927 
L 357.226829 293.574044 
L 358.31263 293.162809 
L 360.484232 293.658012 
L 361.570033 293.481838 
L 362.655835 294.036703 
L 363.741636 294.281479 
L 364.827437 293.693847 
L 365.913238 294.603207 
L 368.08484 293.631739 
L 369.170642 294.148663 
L 370.256443 293.82861 
L 371.342244 294.274476 
L 372.428045 294.200158 
L 373.513846 294.307287 
L 375.685448 294.811084 
L 376.77125 294.031471 
L 377.857051 295.094386 
L 378.942852 294.43618 
L 380.028653 294.513655 
L 381.114454 295.128324 
L 383.286057 294.980854 
L 384.371858 294.647935 
L 385.457659 294.596643 
L 387.629261 295.064039 
L 388.715062 295.058558 
L 389.800863 294.793845 
L 390.886665 295.098493 
L 393.058267 295.324278 
L 394.144068 294.691211 
L 395.229869 295.449492 
L 396.31567 295.351817 
L 397.401472 294.914787 
L 398.487273 295.488 
L 398.487273 295.488 
" clip-path="url(#pd08db4022c)" style="fill: none; stroke: #ff7f0e; stroke-width: 1.5; stroke-linecap: square"/>
   </g>
   <g id="patch_3">
    <path d="M 57.6 307.584 
L 57.6 41.472 
" style="fill: none; stroke: #000000; stroke-width: 0.8; stroke-linejoin: miter; stroke-linecap: square"/>
   </g>
   <g id="patch_4">
    <path d="M 414.72 307.584 
L 414.72 41.472 
" style="fill: none; stroke: #000000; stroke-width: 0.8; stroke-linejoin: miter; stroke-linecap: square"/>
   </g>
   <g id="patch_5">
    <path d="M 57.6 307.584 
L 414.72 307.584 
" style="fill: none; stroke: #000000; stroke-width: 0.8; stroke-linejoin: miter; stroke-linecap: square"/>
   </g>
   <g id="patch_6">
    <path d="M 57.6 41.472 
L 414.72 41.472 
" style="fill: none; stroke: #000000; stroke-width: 0.8; stroke-linejoin: miter; stroke-linecap: square"/>
   </g>
   <g id="text_16">
    <!-- Semi-Supervised Training Loss -->
    <g transform="translate(144.914062 35.472) scale(0.12 -0.12)">
     <defs>
      <path id="DejaVuSans-53" d="M 3425 4513 
L 3425 3897 
Q 3066 4069 2747 4153 
Q 2428 4238 2131 4238 
Q 1616 4238 1336 4038 
Q 1056 3838 1056 3469 
Q 1056 3159 1242 3001 
Q 1428 2844 1947 2747 
L 2328 2669 
Q 3034 2534 3370 2195 
Q 3706 1856 3706 1288 
Q 3706 609 3251 259 
Q 2797 -91 1919 -91 
Q 1588 -91 1214 -16 
Q 841 59 441 206 
L 441 856 
Q 825 641 1194 531 
Q 1563 422 1919 422 
Q 2459 422 2753 634 
Q 3047 847 3047 1241 
Q 3047 1584 2836 1778 
Q 2625 1972 2144 2069 
L 1759 2144 
Q 1053 2284 737 2584 
Q 422 2884 422 3419 
Q 422 4038 858 4394 
Q 1294 4750 2059 4750 
Q 2388 4750 2728 4690 
Q 3069 4631 3425 4513 
z
" transform="scale(0.015625)"/>
      <path id="DejaVuSans-65" d="M 3597 1894 
L 3597 1613 
L 953 1613 
Q 991 1019 1311 708 
Q 1631 397 2203 397 
Q 2534 397 2845 478 
Q 3156 559 3463 722 
L 3463 178 
Q 3153 47 2828 -22 
Q 2503 -91 2169 -91 
Q 1331 -91 842 396 
Q 353 884 353 1716 
Q 353 2575 817 3079 
Q 1281 3584 2069 3584 
Q 2775 3584 3186 3129 
Q 3597 2675 3597 1894 
z
M 3022 2063 
Q 3016 2534 2758 2815 
Q 2500 3097 2075 3097 
Q 1594 3097 1305 2825 
Q 1016 2553 972 2059 
L 3022 2063 
z
" transform="scale(0.015625)"/>
      <path id="DejaVuSans-6d" d="M 3328 2828 
Q 3544 3216 3844 3400 
Q 4144 3584 4550 3584 
Q 5097 3584 5394 3201 
Q 5691 2819 5691 2113 
L 5691 0 
L 5113 0 
L 5113 2094 
Q 5113 2597 4934 2840 
Q 4756 3084 4391 3084 
Q 3944 3084 3684 2787 
Q 3425 2491 3425 1978 
L 3425 0 
L 2847 0 
L 2847 2094 
Q 2847 2600 2669 2842 
Q 2491 3084 2119 3084 
Q 1678 3084 1418 2786 
Q 1159 2488 1159 1978 
L 1159 0 
L 581 0 
L 581 3500 
L 1159 3500 
L 1159 2956 
Q 1356 3278 1631 3431 
Q 1906 3584 2284 3584 
Q 2666 3584 2933 3390 
Q 3200 3197 3328 2828 
z
" transform="scale(0.015625)"/>
      <path id="DejaVuSans-69" d="M 603 3500 
L 1178 3500 
L 1178 0 
L 603 0 
L 603 3500 
z
M 603 4863 
L 1178 4863 
L 1178 4134 
L 603 4134 
L 603 4863 
z
" transform="scale(0.015625)"/>
      <path id="DejaVuSans-2d" d="M 313 2009 
L 1997 2009 
L 1997 1497 
L 313 1497 
L 313 2009 
z
" transform="scale(0.015625)"/>
      <path id="DejaVuSans-75" d="M 544 1381 
L 544 3500 
L 1119 3500 
L 1119 1403 
Q 1119 906 1312 657 
Q 1506 409 1894 409 
Q 2359 409 2629 706 
Q 2900 1003 2900 1516 
L 2900 3500 
L 3475 3500 
L 3475 0 
L 2900 0 
L 2900 538 
Q 2691 219 2414 64 
Q 2138 -91 1772 -91 
Q 1169 -91 856 284 
Q 544 659 544 1381 
z
M 1991 3584 
L 1991 3584 
z
" transform="scale(0.015625)"/>
      <path id="DejaVuSans-70" d="M 1159 525 
L 1159 -1331 
L 581 -1331 
L 581 3500 
L 1159 3500 
L 1159 2969 
Q 1341 3281 1617 3432 
Q 1894 3584 2278 3584 
Q 2916 3584 3314 3078 
Q 3713 2572 3713 1747 
Q 3713 922 3314 415 
Q 2916 -91 2278 -91 
Q 1894 -91 1617 61 
Q 1341 213 1159 525 
z
M 3116 1747 
Q 3116 2381 2855 2742 
Q 2594 3103 2138 3103 
Q 1681 3103 1420 2742 
Q 1159 2381 1159 1747 
Q 1159 1113 1420 752 
Q 1681 391 2138 391 
Q 2594 391 2855 752 
Q 3116 1113 3116 1747 
z
" transform="scale(0.015625)"/>
      <path id="DejaVuSans-72" d="M 2631 2963 
Q 2534 3019 2420 3045 
Q 2306 3072 2169 3072 
Q 1681 3072 1420 2755 
Q 1159 2438 1159 1844 
L 1159 0 
L 581 0 
L 581 3500 
L 1159 3500 
L 1159 2956 
Q 1341 3275 1631 3429 
Q 1922 3584 2338 3584 
Q 2397 3584 2469 3576 
Q 2541 3569 2628 3553 
L 2631 2963 
z
" transform="scale(0.015625)"/>
      <path id="DejaVuSans-76" d="M 191 3500 
L 800 3500 
L 1894 563 
L 2988 3500 
L 3597 3500 
L 2284 0 
L 1503 0 
L 191 3500 
z
" transform="scale(0.015625)"/>
      <path id="DejaVuSans-73" d="M 2834 3397 
L 2834 2853 
Q 2591 2978 2328 3040 
Q 2066 3103 1784 3103 
Q 1356 3103 1142 2972 
Q 928 2841 928 2578 
Q 928 2378 1081 2264 
Q 1234 2150 1697 2047 
L 1894 2003 
Q 2506 1872 2764 1633 
Q 3022 1394 3022 966 
Q 3022 478 2636 193 
Q 2250 -91 1575 -91 
Q 1294 -91 989 -36 
Q 684 19 347 128 
L 347 722 
Q 666 556 975 473 
Q 1284 391 1588 391 
Q 1994 391 2212 530 
Q 2431 669 2431 922 
Q 2431 1156 2273 1281 
Q 2116 1406 1581 1522 
L 1381 1569 
Q 847 1681 609 1914 
Q 372 2147 372 2553 
Q 372 3047 722 3315 
Q 1072 3584 1716 3584 
Q 2034 3584 2315 3537 
Q 2597 3491 2834 3397 
z
" transform="scale(0.015625)"/>
      <path id="DejaVuSans-64" d="M 2906 2969 
L 2906 4863 
L 3481 4863 
L 3481 0 
L 2906 0 
L 2906 525 
Q 2725 213 2448 61 
Q 2172 -91 1784 -91 
Q 1150 -91 751 415 
Q 353 922 353 1747 
Q 353 2572 751 3078 
Q 1150 3584 1784 3584 
Q 2172 3584 2448 3432 
Q 2725 3281 2906 2969 
z
M 947 1747 
Q 947 1113 1208 752 
Q 1469 391 1925 391 
Q 2381 391 2643 752 
Q 2906 1113 2906 1747 
Q 2906 2381 2643 2742 
Q 2381 3103 1925 3103 
Q 1469 3103 1208 2742 
Q 947 2381 947 1747 
z
" transform="scale(0.015625)"/>
      <path id="DejaVuSans-20" transform="scale(0.015625)"/>
      <path id="DejaVuSans-54" d="M -19 4666 
L 3928 4666 
L 3928 4134 
L 2272 4134 
L 2272 0 
L 1638 0 
L 1638 4134 
L -19 4134 
L -19 4666 
z
" transform="scale(0.015625)"/>
      <path id="DejaVuSans-61" d="M 2194 1759 
Q 1497 1759 1228 1600 
Q 959 1441 959 1056 
Q 959 750 1161 570 
Q 1363 391 1709 391 
Q 2188 391 2477 730 
Q 2766 1069 2766 1631 
L 2766 1759 
L 2194 1759 
z
M 3341 1997 
L 3341 0 
L 2766 0 
L 2766 531 
Q 2569 213 2275 61 
Q 1981 -91 1556 -91 
Q 1019 -91 701 211 
Q 384 513 384 1019 
Q 384 1609 779 1909 
Q 1175 2209 1959 2209 
L 2766 2209 
L 2766 2266 
Q 2766 2663 2505 2880 
Q 2244 3097 1772 3097 
Q 1472 3097 1187 3025 
Q 903 2953 641 2809 
L 641 3341 
Q 956 3463 1253 3523 
Q 1550 3584 1831 3584 
Q 2591 3584 2966 3190 
Q 3341 2797 3341 1997 
z
" transform="scale(0.015625)"/>
      <path id="DejaVuSans-6e" d="M 3513 2113 
L 3513 0 
L 2938 0 
L 2938 2094 
Q 2938 2591 2744 2837 
Q 2550 3084 2163 3084 
Q 1697 3084 1428 2787 
Q 1159 2491 1159 1978 
L 1159 0 
L 581 0 
L 581 3500 
L 1159 3500 
L 1159 2956 
Q 1366 3272 1645 3428 
Q 1925 3584 2291 3584 
Q 2894 3584 3203 3211 
Q 3513 2838 3513 2113 
z
" transform="scale(0.015625)"/>
      <path id="DejaVuSans-67" d="M 2906 1791 
Q 2906 2416 2648 2759 
Q 2391 3103 1925 3103 
Q 1463 3103 1205 2759 
Q 947 2416 947 1791 
Q 947 1169 1205 825 
Q 1463 481 1925 481 
Q 2391 481 2648 825 
Q 2906 1169 2906 1791 
z
M 3481 434 
Q 3481 -459 3084 -895 
Q 2688 -1331 1869 -1331 
Q 1566 -1331 1297 -1286 
Q 1028 -1241 775 -1147 
L 775 -588 
Q 1028 -725 1275 -790 
Q 1522 -856 1778 -856 
Q 2344 -856 2625 -561 
Q 2906 -266 2906 331 
L 2906 616 
Q 2728 306 2450 153 
Q 2172 0 1784 0 
Q 1141 0 747 490 
Q 353 981 353 1791 
Q 353 2603 747 3093 
Q 1141 3584 1784 3584 
Q 2172 3584 2450 3431 
Q 2728 3278 2906 2969 
L 2906 3500 
L 3481 3500 
L 3481 434 
z
" transform="scale(0.015625)"/>
      <path id="DejaVuSans-4c" d="M 628 4666 
L 1259 4666 
L 1259 531 
L 3531 531 
L 3531 0 
L 628 0 
L 628 4666 
z
" transform="scale(0.015625)"/>
      <path id="DejaVuSans-6f" d="M 1959 3097 
Q 1497 3097 1228 2736 
Q 959 2375 959 1747 
Q 959 1119 1226 758 
Q 1494 397 1959 397 
Q 2419 397 2687 759 
Q 2956 1122 2956 1747 
Q 2956 2369 2687 2733 
Q 2419 3097 1959 3097 
z
M 1959 3584 
Q 2709 3584 3137 3096 
Q 3566 2609 3566 1747 
Q 3566 888 3137 398 
Q 2709 -91 1959 -91 
Q 1206 -91 779 398 
Q 353 888 353 1747 
Q 353 2609 779 3096 
Q 1206 3584 1959 3584 
z
" transform="scale(0.015625)"/>
     </defs>
     <use xlink:href="#DejaVuSans-53"/>
     <use xlink:href="#DejaVuSans-65" transform="translate(63.476562 0)"/>
     <use xlink:href="#DejaVuSans-6d" transform="translate(125 0)"/>
     <use xlink:href="#DejaVuSans-69" transform="translate(222.412109 0)"/>
     <use xlink:href="#DejaVuSans-2d" transform="translate(250.195312 0)"/>
     <use xlink:href="#DejaVuSans-53" transform="translate(286.279297 0)"/>
     <use xlink:href="#DejaVuSans-75" transform="translate(349.755859 0)"/>
     <use xlink:href="#DejaVuSans-70" transform="translate(413.134766 0)"/>
     <use xlink:href="#DejaVuSans-65" transform="translate(476.611328 0)"/>
     <use xlink:href="#DejaVuSans-72" transform="translate(538.134766 0)"/>
     <use xlink:href="#DejaVuSans-76" transform="translate(579.248047 0)"/>
     <use xlink:href="#DejaVuSans-69" transform="translate(638.427734 0)"/>
     <use xlink:href="#DejaVuSans-73" transform="translate(666.210938 0)"/>
     <use xlink:href="#DejaVuSans-65" transform="translate(718.310547 0)"/>
     <use xlink:href="#DejaVuSans-64" transform="translate(779.833984 0)"/>
     <use xlink:href="#DejaVuSans-20" transform="translate(843.310547 0)"/>
     <use xlink:href="#DejaVuSans-54" transform="translate(875.097656 0)"/>
     <use xlink:href="#DejaVuSans-72" transform="translate(921.431641 0)"/>
     <use xlink:href="#DejaVuSans-61" transform="translate(962.544922 0)"/>
     <use xlink:href="#DejaVuSans-69" transform="translate(1023.824219 0)"/>
     <use xlink:href="#DejaVuSans-6e" transform="translate(1051.607422 0)"/>
     <use xlink:href="#DejaVuSans-69" transform="translate(1114.986328 0)"/>
     <use xlink:href="#DejaVuSans-6e" transform="translate(1142.769531 0)"/>
     <use xlink:href="#DejaVuSans-67" transform="translate(1206.148438 0)"/>
     <use xlink:href="#DejaVuSans-20" transform="translate(1269.625 0)"/>
     <use xlink:href="#DejaVuSans-4c" transform="translate(1301.412109 0)"/>
     <use xlink:href="#DejaVuSans-6f" transform="translate(1355.375 0)"/>
     <use xlink:href="#DejaVuSans-73" transform="translate(1416.556641 0)"/>
     <use xlink:href="#DejaVuSans-73" transform="translate(1468.65625 0)"/>
    </g>
   </g>
   <g id="legend_1">
    <g id="patch_7">
     <path d="M 304.729375 78.82825 
L 407.72 78.82825 
Q 409.72 78.82825 409.72 76.82825 
L 409.72 48.472 
Q 409.72 46.472 407.72 46.472 
L 304.729375 46.472 
Q 302.729375 46.472 302.729375 48.472 
L 302.729375 76.82825 
Q 302.729375 78.82825 304.729375 78.82825 
z
" style="fill: #ffffff; opacity: 0.8; stroke: #cccccc; stroke-linejoin: miter"/>
    </g>
    <g id="line2d_33">
     <path d="M 306.729375 54.570437 
L 316.729375 54.570437 
L 326.729375 54.570437 
" style="fill: none; stroke: #1f77b4; stroke-width: 1.5; stroke-linecap: square"/>
    </g>
    <g id="text_17">
     <!-- Train (Pseudo) -->
     <g transform="translate(334.729375 58.070437) scale(0.1 -0.1)">
      <defs>
       <path id="DejaVuSans-28" d="M 1984 4856 
Q 1566 4138 1362 3434 
Q 1159 2731 1159 2009 
Q 1159 1288 1364 580 
Q 1569 -128 1984 -844 
L 1484 -844 
Q 1016 -109 783 600 
Q 550 1309 550 2009 
Q 550 2706 781 3412 
Q 1013 4119 1484 4856 
L 1984 4856 
z
" transform="scale(0.015625)"/>
       <path id="DejaVuSans-50" d="M 1259 4147 
L 1259 2394 
L 2053 2394 
Q 2494 2394 2734 2622 
Q 2975 2850 2975 3272 
Q 2975 3691 2734 3919 
Q 2494 4147 2053 4147 
L 1259 4147 
z
M 628 4666 
L 2053 4666 
Q 2838 4666 3239 4311 
Q 3641 3956 3641 3272 
Q 3641 2581 3239 2228 
Q 2838 1875 2053 1875 
L 1259 1875 
L 1259 0 
L 628 0 
L 628 4666 
z
" transform="scale(0.015625)"/>
       <path id="DejaVuSans-29" d="M 513 4856 
L 1013 4856 
Q 1481 4119 1714 3412 
Q 1947 2706 1947 2009 
Q 1947 1309 1714 600 
Q 1481 -109 1013 -844 
L 513 -844 
Q 928 -128 1133 580 
Q 1338 1288 1338 2009 
Q 1338 2731 1133 3434 
Q 928 4138 513 4856 
z
" transform="scale(0.015625)"/>
      </defs>
      <use xlink:href="#DejaVuSans-54"/>
      <use xlink:href="#DejaVuSans-72" transform="translate(46.333984 0)"/>
      <use xlink:href="#DejaVuSans-61" transform="translate(87.447266 0)"/>
      <use xlink:href="#DejaVuSans-69" transform="translate(148.726562 0)"/>
      <use xlink:href="#DejaVuSans-6e" transform="translate(176.509766 0)"/>
      <use xlink:href="#DejaVuSans-20" transform="translate(239.888672 0)"/>
      <use xlink:href="#DejaVuSans-28" transform="translate(271.675781 0)"/>
      <use xlink:href="#DejaVuSans-50" transform="translate(310.689453 0)"/>
      <use xlink:href="#DejaVuSans-73" transform="translate(369.242188 0)"/>
      <use xlink:href="#DejaVuSans-65" transform="translate(421.341797 0)"/>
      <use xlink:href="#DejaVuSans-75" transform="translate(482.865234 0)"/>
      <use xlink:href="#DejaVuSans-64" transform="translate(546.244141 0)"/>
      <use xlink:href="#DejaVuSans-6f" transform="translate(609.720703 0)"/>
      <use xlink:href="#DejaVuSans-29" transform="translate(670.902344 0)"/>
     </g>
    </g>
    <g id="line2d_34">
     <path d="M 306.729375 69.248562 
L 316.729375 69.248562 
L 326.729375 69.248562 
" style="fill: none; stroke: #ff7f0e; stroke-width: 1.5; stroke-linecap: square"/>
    </g>
    <g id="text_18">
     <!-- Val (Real) -->
     <g transform="translate(334.729375 72.748562) scale(0.1 -0.1)">
      <defs>
       <path id="DejaVuSans-56" d="M 1831 0 
L 50 4666 
L 709 4666 
L 2188 738 
L 3669 4666 
L 4325 4666 
L 2547 0 
L 1831 0 
z
" transform="scale(0.015625)"/>
       <path id="DejaVuSans-6c" d="M 603 4863 
L 1178 4863 
L 1178 0 
L 603 0 
L 603 4863 
z
" transform="scale(0.015625)"/>
       <path id="DejaVuSans-52" d="M 2841 2188 
Q 3044 2119 3236 1894 
Q 3428 1669 3622 1275 
L 4263 0 
L 3584 0 
L 2988 1197 
Q 2756 1666 2539 1819 
Q 2322 1972 1947 1972 
L 1259 1972 
L 1259 0 
L 628 0 
L 628 4666 
L 2053 4666 
Q 2853 4666 3247 4331 
Q 3641 3997 3641 3322 
Q 3641 2881 3436 2590 
Q 3231 2300 2841 2188 
z
M 1259 4147 
L 1259 2491 
L 2053 2491 
Q 2509 2491 2742 2702 
Q 2975 2913 2975 3322 
Q 2975 3731 2742 3939 
Q 2509 4147 2053 4147 
L 1259 4147 
z
" transform="scale(0.015625)"/>
      </defs>
      <use xlink:href="#DejaVuSans-56"/>
      <use xlink:href="#DejaVuSans-61" transform="translate(60.658203 0)"/>
      <use xlink:href="#DejaVuSans-6c" transform="translate(121.9375 0)"/>
      <use xlink:href="#DejaVuSans-20" transform="translate(149.720703 0)"/>
      <use xlink:href="#DejaVuSans-28" transform="translate(181.507812 0)"/>
      <use xlink:href="#DejaVuSans-52" transform="translate(220.521484 0)"/>
      <use xlink:href="#DejaVuSans-65" transform="translate(285.503906 0)"/>
      <use xlink:href="#DejaVuSans-61" transform="translate(347.027344 0)"/>
      <use xlink:href="#DejaVuSans-6c" transform="translate(408.306641 0)"/>
      <use xlink:href="#DejaVuSans-29" transform="translate(436.089844 0)"/>
     </g>
    </g>
   </g>
  </g>
 </g>
 <defs>
  <clipPath id="pd08db4022c">
   <rect x="57.6" y="41.472" width="357.12" height="266.112"/>
  </clipPath>
 </defs>
</svg>
