<?xml version="1.0" encoding="utf-8" standalone="no"?>
<!DOCTYPE svg PUBLIC "-//W3C//DTD SVG 1.1//EN"
  "http://www.w3.org/Graphics/SVG/1.1/DTD/svg11.dtd">
<svg xmlns:xlink="http://www.w3.org/1999/xlink" width="460.8pt" height="345.6pt" viewBox="0 0 460.8 345.6" xmlns="http://www.w3.org/2000/svg" version="1.1">
 <metadata>
  <rdf:RDF xmlns:dc="http://purl.org/dc/elements/1.1/" xmlns:cc="http://creativecommons.org/ns#" xmlns:rdf="http://www.w3.org/1999/02/22-rdf-syntax-ns#">
   <cc:Work>
    <dc:type rdf:resource="http://purl.org/dc/dcmitype/StillImage"/>
    <dc:date>2025-10-10T23:58:31.026030</dc:date>
    <dc:format>image/svg+xml</dc:format>
    <dc:creator>
     <cc:Agent>
      <dc:title>Matplotlib v3.10.6, https://matplotlib.org/</dc:title>
     </cc:Agent>
    </dc:creator>
   </cc:Work>
  </rdf:RDF>
 </metadata>
 <defs>
  <style type="text/css">*{stroke-linejoin: round; stroke-linecap: butt}</style>
 </defs>
 <g id="figure_1">
  <g id="patch_1">
   <path d="M 0 345.6 
L 460.8 345.6 
L 460.8 0 
L 0 0 
z
" style="fill: #ffffff"/>
  </g>
  <g id="axes_1">
   <g id="patch_2">
    <path d="M 57.6 307.584 
L 414.72 307.584 
L 414.72 41.472 
L 57.6 41.472 
z
" style="fill: #ffffff"/>
   </g>
   <g id="matplotlib.axis_1">
    <g id="xtick_1">
     <g id="line2d_1">
      <path d="M 73.832727 307.584 
L 73.832727 41.472 
" clip-path="url(#p003008aea6)" style="fill: none; stroke: #b0b0b0; stroke-width: 0.8; stroke-linecap: square"/>
     </g>
     <g id="line2d_2">
      <defs>
       <path id="m040d3fab06" d="M 0 0 
L 0 3.5 
" style="stroke: #000000; stroke-width: 0.8"/>
      </defs>
      <g>
       <use xlink:href="#m040d3fab06" x="73.832727" y="307.584" style="stroke: #000000; stroke-width: 0.8"/>
      </g>
     </g>
     <g id="text_1">
      <!-- 0 -->
      <g transform="translate(70.651477 322.182437) scale(0.1 -0.1)">
       <defs>
        <path id="DejaVuSans-30" d="M 2034 4250 
Q 1547 4250 1301 3770 
Q 1056 3291 1056 2328 
Q 1056 1369 1301 889 
Q 1547 409 2034 409 
Q 2525 409 2770 889 
Q 3016 1369 3016 2328 
Q 3016 3291 2770 3770 
Q 2525 4250 2034 4250 
z
M 2034 4750 
Q 2819 4750 3233 4129 
Q 3647 3509 3647 2328 
Q 3647 1150 3233 529 
Q 2819 -91 2034 -91 
Q 1250 -91 836 529 
Q 422 1150 422 2328 
Q 422 3509 836 4129 
Q 1250 4750 2034 4750 
z
" transform="scale(0.015625)"/>
       </defs>
       <use xlink:href="#DejaVuSans-30"/>
      </g>
     </g>
    </g>
    <g id="xtick_2">
     <g id="line2d_3">
      <path d="M 148.984242 307.584 
L 148.984242 41.472 
" clip-path="url(#p003008aea6)" style="fill: none; stroke: #b0b0b0; stroke-width: 0.8; stroke-linecap: square"/>
     </g>
     <g id="line2d_4">
      <g>
       <use xlink:href="#m040d3fab06" x="148.984242" y="307.584" style="stroke: #000000; stroke-width: 0.8"/>
      </g>
     </g>
     <g id="text_2">
      <!-- 50 -->
      <g transform="translate(142.621742 322.182437) scale(0.1 -0.1)">
       <defs>
        <path id="DejaVuSans-35" d="M 691 4666 
L 3169 4666 
L 3169 4134 
L 1269 4134 
L 1269 2991 
Q 1406 3038 1543 3061 
Q 1681 3084 1819 3084 
Q 2600 3084 3056 2656 
Q 3513 2228 3513 1497 
Q 3513 744 3044 326 
Q 2575 -91 1722 -91 
Q 1428 -91 1123 -41 
Q 819 9 494 109 
L 494 744 
Q 775 591 1075 516 
Q 1375 441 1709 441 
Q 2250 441 2565 725 
Q 2881 1009 2881 1497 
Q 2881 1984 2565 2268 
Q 2250 2553 1709 2553 
Q 1456 2553 1204 2497 
Q 953 2441 691 2322 
L 691 4666 
z
" transform="scale(0.015625)"/>
       </defs>
       <use xlink:href="#DejaVuSans-35"/>
       <use xlink:href="#DejaVuSans-30" transform="translate(63.623047 0)"/>
      </g>
     </g>
    </g>
    <g id="xtick_3">
     <g id="line2d_5">
      <path d="M 224.135758 307.584 
L 224.135758 41.472 
" clip-path="url(#p003008aea6)" style="fill: none; stroke: #b0b0b0; stroke-width: 0.8; stroke-linecap: square"/>
     </g>
     <g id="line2d_6">
      <g>
       <use xlink:href="#m040d3fab06" x="224.135758" y="307.584" style="stroke: #000000; stroke-width: 0.8"/>
      </g>
     </g>
     <g id="text_3">
      <!-- 100 -->
      <g transform="translate(214.592008 322.182437) scale(0.1 -0.1)">
       <defs>
        <path id="DejaVuSans-31" d="M 794 531 
L 1825 531 
L 1825 4091 
L 703 3866 
L 703 4441 
L 1819 4666 
L 2450 4666 
L 2450 531 
L 3481 531 
L 3481 0 
L 794 0 
L 794 531 
z
" transform="scale(0.015625)"/>
       </defs>
       <use xlink:href="#DejaVuSans-31"/>
       <use xlink:href="#DejaVuSans-30" transform="translate(63.623047 0)"/>
       <use xlink:href="#DejaVuSans-30" transform="translate(127.246094 0)"/>
      </g>
     </g>
    </g>
    <g id="xtick_4">
     <g id="line2d_7">
      <path d="M 299.287273 307.584 
L 299.287273 41.472 
" clip-path="url(#p003008aea6)" style="fill: none; stroke: #b0b0b0; stroke-width: 0.8; stroke-linecap: square"/>
     </g>
     <g id="line2d_8">
      <g>
       <use xlink:href="#m040d3fab06" x="299.287273" y="307.584" style="stroke: #000000; stroke-width: 0.8"/>
      </g>
     </g>
     <g id="text_4">
      <!-- 150 -->
      <g transform="translate(289.743523 322.182437) scale(0.1 -0.1)">
       <use xlink:href="#DejaVuSans-31"/>
       <use xlink:href="#DejaVuSans-35" transform="translate(63.623047 0)"/>
       <use xlink:href="#DejaVuSans-30" transform="translate(127.246094 0)"/>
      </g>
     </g>
    </g>
    <g id="xtick_5">
     <g id="line2d_9">
      <path d="M 374.438788 307.584 
L 374.438788 41.472 
" clip-path="url(#p003008aea6)" style="fill: none; stroke: #b0b0b0; stroke-width: 0.8; stroke-linecap: square"/>
     </g>
     <g id="line2d_10">
      <g>
       <use xlink:href="#m040d3fab06" x="374.438788" y="307.584" style="stroke: #000000; stroke-width: 0.8"/>
      </g>
     </g>
     <g id="text_5">
      <!-- 200 -->
      <g transform="translate(364.895038 322.182437) scale(0.1 -0.1)">
       <defs>
        <path id="DejaVuSans-32" d="M 1228 531 
L 3431 531 
L 3431 0 
L 469 0 
L 469 531 
Q 828 903 1448 1529 
Q 2069 2156 2228 2338 
Q 2531 2678 2651 2914 
Q 2772 3150 2772 3378 
Q 2772 3750 2511 3984 
Q 2250 4219 1831 4219 
Q 1534 4219 1204 4116 
Q 875 4013 500 3803 
L 500 4441 
Q 881 4594 1212 4672 
Q 1544 4750 1819 4750 
Q 2544 4750 2975 4387 
Q 3406 4025 3406 3419 
Q 3406 3131 3298 2873 
Q 3191 2616 2906 2266 
Q 2828 2175 2409 1742 
Q 1991 1309 1228 531 
z
" transform="scale(0.015625)"/>
       </defs>
       <use xlink:href="#DejaVuSans-32"/>
       <use xlink:href="#DejaVuSans-30" transform="translate(63.623047 0)"/>
       <use xlink:href="#DejaVuSans-30" transform="translate(127.246094 0)"/>
      </g>
     </g>
    </g>
   </g>
   <g id="matplotlib.axis_2">
    <g id="ytick_1">
     <g id="line2d_11">
      <path d="M 57.6 286.317583 
L 414.72 286.317583 
" clip-path="url(#p003008aea6)" style="fill: none; stroke: #b0b0b0; stroke-width: 0.8; stroke-linecap: square"/>
     </g>
     <g id="line2d_12">
      <defs>
       <path id="m33e9b953de" d="M 0 0 
L -3.5 0 
" style="stroke: #000000; stroke-width: 0.8"/>
      </defs>
      <g>
       <use xlink:href="#m33e9b953de" x="57.6" y="286.317583" style="stroke: #000000; stroke-width: 0.8"/>
      </g>
     </g>
     <g id="text_6">
      <!-- 4 -->
      <g transform="translate(44.2375 290.116801) scale(0.1 -0.1)">
       <defs>
        <path id="DejaVuSans-34" d="M 2419 4116 
L 825 1625 
L 2419 1625 
L 2419 4116 
z
M 2253 4666 
L 3047 4666 
L 3047 1625 
L 3713 1625 
L 3713 1100 
L 3047 1100 
L 3047 0 
L 2419 0 
L 2419 1100 
L 313 1100 
L 313 1709 
L 2253 4666 
z
" transform="scale(0.015625)"/>
       </defs>
       <use xlink:href="#DejaVuSans-34"/>
      </g>
     </g>
    </g>
    <g id="ytick_2">
     <g id="line2d_13">
      <path d="M 57.6 235.953283 
L 414.72 235.953283 
" clip-path="url(#p003008aea6)" style="fill: none; stroke: #b0b0b0; stroke-width: 0.8; stroke-linecap: square"/>
     </g>
     <g id="line2d_14">
      <g>
       <use xlink:href="#m33e9b953de" x="57.6" y="235.953283" style="stroke: #000000; stroke-width: 0.8"/>
      </g>
     </g>
     <g id="text_7">
      <!-- 6 -->
      <g transform="translate(44.2375 239.752502) scale(0.1 -0.1)">
       <defs>
        <path id="DejaVuSans-36" d="M 2113 2584 
Q 1688 2584 1439 2293 
Q 1191 2003 1191 1497 
Q 1191 994 1439 701 
Q 1688 409 2113 409 
Q 2538 409 2786 701 
Q 3034 994 3034 1497 
Q 3034 2003 2786 2293 
Q 2538 2584 2113 2584 
z
M 3366 4563 
L 3366 3988 
Q 3128 4100 2886 4159 
Q 2644 4219 2406 4219 
Q 1781 4219 1451 3797 
Q 1122 3375 1075 2522 
Q 1259 2794 1537 2939 
Q 1816 3084 2150 3084 
Q 2853 3084 3261 2657 
Q 3669 2231 3669 1497 
Q 3669 778 3244 343 
Q 2819 -91 2113 -91 
Q 1303 -91 875 529 
Q 447 1150 447 2328 
Q 447 3434 972 4092 
Q 1497 4750 2381 4750 
Q 2619 4750 2861 4703 
Q 3103 4656 3366 4563 
z
" transform="scale(0.015625)"/>
       </defs>
       <use xlink:href="#DejaVuSans-36"/>
      </g>
     </g>
    </g>
    <g id="ytick_3">
     <g id="line2d_15">
      <path d="M 57.6 185.588983 
L 414.72 185.588983 
" clip-path="url(#p003008aea6)" style="fill: none; stroke: #b0b0b0; stroke-width: 0.8; stroke-linecap: square"/>
     </g>
     <g id="line2d_16">
      <g>
       <use xlink:href="#m33e9b953de" x="57.6" y="185.588983" style="stroke: #000000; stroke-width: 0.8"/>
      </g>
     </g>
     <g id="text_8">
      <!-- 8 -->
      <g transform="translate(44.2375 189.388202) scale(0.1 -0.1)">
       <defs>
        <path id="DejaVuSans-38" d="M 2034 2216 
Q 1584 2216 1326 1975 
Q 1069 1734 1069 1313 
Q 1069 891 1326 650 
Q 1584 409 2034 409 
Q 2484 409 2743 651 
Q 3003 894 3003 1313 
Q 3003 1734 2745 1975 
Q 2488 2216 2034 2216 
z
M 1403 2484 
Q 997 2584 770 2862 
Q 544 3141 544 3541 
Q 544 4100 942 4425 
Q 1341 4750 2034 4750 
Q 2731 4750 3128 4425 
Q 3525 4100 3525 3541 
Q 3525 3141 3298 2862 
Q 3072 2584 2669 2484 
Q 3125 2378 3379 2068 
Q 3634 1759 3634 1313 
Q 3634 634 3220 271 
Q 2806 -91 2034 -91 
Q 1263 -91 848 271 
Q 434 634 434 1313 
Q 434 1759 690 2068 
Q 947 2378 1403 2484 
z
M 1172 3481 
Q 1172 3119 1398 2916 
Q 1625 2713 2034 2713 
Q 2441 2713 2670 2916 
Q 2900 3119 2900 3481 
Q 2900 3844 2670 4047 
Q 2441 4250 2034 4250 
Q 1625 4250 1398 4047 
Q 1172 3844 1172 3481 
z
" transform="scale(0.015625)"/>
       </defs>
       <use xlink:href="#DejaVuSans-38"/>
      </g>
     </g>
    </g>
    <g id="ytick_4">
     <g id="line2d_17">
      <path d="M 57.6 135.224683 
L 414.72 135.224683 
" clip-path="url(#p003008aea6)" style="fill: none; stroke: #b0b0b0; stroke-width: 0.8; stroke-linecap: square"/>
     </g>
     <g id="line2d_18">
      <g>
       <use xlink:href="#m33e9b953de" x="57.6" y="135.224683" style="stroke: #000000; stroke-width: 0.8"/>
      </g>
     </g>
     <g id="text_9">
      <!-- 10 -->
      <g transform="translate(37.875 139.023902) scale(0.1 -0.1)">
       <use xlink:href="#DejaVuSans-31"/>
       <use xlink:href="#DejaVuSans-30" transform="translate(63.623047 0)"/>
      </g>
     </g>
    </g>
    <g id="ytick_5">
     <g id="line2d_19">
      <path d="M 57.6 84.860383 
L 414.72 84.860383 
" clip-path="url(#p003008aea6)" style="fill: none; stroke: #b0b0b0; stroke-width: 0.8; stroke-linecap: square"/>
     </g>
     <g id="line2d_20">
      <g>
       <use xlink:href="#m33e9b953de" x="57.6" y="84.860383" style="stroke: #000000; stroke-width: 0.8"/>
      </g>
     </g>
     <g id="text_10">
      <!-- 12 -->
      <g transform="translate(37.875 88.659602) scale(0.1 -0.1)">
       <use xlink:href="#DejaVuSans-31"/>
       <use xlink:href="#DejaVuSans-32" transform="translate(63.623047 0)"/>
      </g>
     </g>
    </g>
   </g>
   <g id="line2d_21">
    <path d="M 73.832727 53.568 
L 75.335758 54.208087 
L 76.838788 62.684334 
L 78.341818 69.943953 
L 79.844848 70.38752 
L 81.347879 76.986663 
L 82.850909 86.109601 
L 84.353939 86.745485 
L 85.85697 84.681491 
L 87.36 76.771099 
L 88.86303 98.342676 
L 90.366061 103.020116 
L 91.869091 109.492841 
L 93.372121 105.462044 
L 94.875152 111.718196 
L 96.378182 115.964989 
L 97.881212 117.014589 
L 99.384242 120.957802 
L 100.887273 127.638429 
L 102.390303 129.898966 
L 103.893333 129.212866 
L 105.396364 133.975585 
L 106.899394 143.99099 
L 108.402424 138.550311 
L 109.905455 148.703782 
L 111.408485 145.306707 
L 112.911515 150.572794 
L 114.414545 154.669393 
L 115.917576 150.703558 
L 118.923636 156.248033 
L 120.426667 158.67728 
L 121.929697 167.019136 
L 123.432727 169.21195 
L 124.935758 173.049638 
L 126.438788 170.136093 
L 127.941818 171.595855 
L 129.444848 175.80199 
L 130.947879 176.898181 
L 132.450909 179.856178 
L 133.953939 181.952521 
L 135.45697 186.801565 
L 136.96 188.827651 
L 138.46303 188.331309 
L 139.966061 189.436734 
L 141.469091 185.59112 
L 142.972121 187.539191 
L 144.475152 195.499344 
L 145.978182 197.944873 
L 147.481212 193.700494 
L 148.984242 203.456759 
L 150.487273 204.75444 
L 151.990303 204.401712 
L 153.493333 201.335091 
L 154.996364 208.409838 
L 156.499394 212.358622 
L 158.002424 208.968524 
L 159.505455 213.202745 
L 161.008485 209.499521 
L 162.511515 212.889654 
L 164.014545 221.424764 
L 165.517576 209.516572 
L 167.020606 212.600399 
L 168.523636 221.341118 
L 170.026667 216.819802 
L 171.529697 222.395941 
L 173.032727 225.893005 
L 174.535758 225.922652 
L 176.038788 225.400866 
L 177.541818 228.761304 
L 179.044848 223.234073 
L 180.547879 228.379084 
L 182.050909 232.611408 
L 185.05697 229.841416 
L 186.56 231.43312 
L 188.06303 235.19379 
L 189.566061 234.987389 
L 191.069091 237.917852 
L 192.572121 238.559068 
L 194.075152 236.892568 
L 195.578182 233.904479 
L 197.081212 240.839467 
L 198.584242 239.485901 
L 200.087273 239.393045 
L 201.590303 244.970109 
L 203.093333 246.712306 
L 204.596364 246.57095 
L 206.099394 241.566586 
L 207.602424 245.786698 
L 209.105455 242.407143 
L 210.608485 245.84592 
L 212.111515 246.343907 
L 213.614545 248.092193 
L 215.117576 248.261827 
L 216.620606 249.650755 
L 218.123636 251.912181 
L 219.626667 251.674427 
L 221.129697 247.997223 
L 222.632727 249.635109 
L 224.135758 257.016859 
L 225.638788 249.156275 
L 227.141818 254.408179 
L 228.644848 255.851947 
L 230.147879 254.031447 
L 231.650909 255.845199 
L 233.153939 259.424648 
L 234.65697 258.28069 
L 236.16 257.46009 
L 237.66303 258.52177 
L 239.166061 257.319179 
L 240.669091 259.770724 
L 242.172121 258.24433 
L 243.675152 260.219383 
L 245.178182 261.548549 
L 246.681212 258.239203 
L 248.184242 262.884487 
L 249.687273 260.777769 
L 251.190303 262.502135 
L 252.693333 264.566417 
L 254.196364 263.563071 
L 255.699394 270.268662 
L 257.202424 265.519595 
L 258.705455 264.017697 
L 260.208485 265.766199 
L 261.711515 263.78357 
L 263.214545 264.021924 
L 264.717576 265.101856 
L 266.220606 266.401435 
L 267.723636 265.674496 
L 269.226667 269.4697 
L 270.729697 270.148824 
L 272.232727 268.021897 
L 273.735758 269.402624 
L 275.238788 270.318326 
L 276.741818 268.523042 
L 278.244848 270.255261 
L 279.747879 269.593909 
L 281.250909 271.025705 
L 282.753939 273.187778 
L 284.25697 274.191173 
L 285.76 271.60155 
L 287.26303 270.547411 
L 288.766061 272.500717 
L 290.269091 272.382188 
L 291.772121 273.160461 
L 293.275152 272.892555 
L 294.778182 276.690761 
L 296.281212 273.663071 
L 297.784242 274.483587 
L 299.287273 274.091112 
L 300.790303 275.475454 
L 302.293333 276.502684 
L 303.796364 274.454924 
L 305.299394 275.543141 
L 306.802424 274.595679 
L 308.305455 277.372275 
L 309.808485 276.722846 
L 311.311515 279.038692 
L 312.814545 276.750128 
L 314.317576 277.548442 
L 315.820606 277.461553 
L 317.323636 279.783943 
L 318.826667 278.73965 
L 320.329697 277.965688 
L 321.832727 279.600764 
L 323.335758 280.049051 
L 324.838788 277.776133 
L 326.341818 278.87936 
L 327.844848 280.383023 
L 329.347879 281.469908 
L 330.850909 279.01099 
L 332.353939 280.279576 
L 333.85697 280.490217 
L 335.36 281.086571 
L 336.86303 280.466213 
L 339.869091 280.066138 
L 341.372121 281.529406 
L 342.875152 282.193665 
L 344.378182 283.516094 
L 345.881212 283.230525 
L 347.384242 283.857488 
L 348.887273 283.668017 
L 350.390303 282.531444 
L 353.396364 284.418804 
L 354.899394 281.632325 
L 356.402424 285.207211 
L 357.905455 283.822941 
L 359.408485 286.26051 
L 360.911515 284.30144 
L 362.414545 284.506172 
L 363.917576 286.774065 
L 365.420606 284.731691 
L 366.923636 286.550029 
L 368.426667 285.800119 
L 371.432727 286.298646 
L 372.935758 287.14654 
L 374.438788 285.354066 
L 375.941818 286.566624 
L 377.444848 285.280122 
L 378.947879 286.818373 
L 380.450909 289.073676 
L 381.953939 286.543803 
L 383.45697 286.218603 
L 384.96 286.636071 
L 386.46303 288.055109 
L 387.966061 286.083995 
L 389.469091 289.657848 
L 390.972121 285.765885 
L 392.475152 288.942544 
L 393.978182 288.113533 
L 395.481212 288.358942 
L 396.984242 289.346871 
L 398.487273 288.381997 
L 398.487273 288.381997 
" clip-path="url(#p003008aea6)" style="fill: none; stroke: #1f77b4; stroke-width: 1.5; stroke-linecap: square"/>
   </g>
   <g id="line2d_22">
    <path d="M 73.832727 179.317005 
L 75.335758 200.293212 
L 76.838788 204.298709 
L 78.341818 198.08211 
L 79.844848 184.799471 
L 81.347879 174.277554 
L 82.850909 184.523941 
L 84.353939 196.582314 
L 85.85697 203.856738 
L 87.36 205.729256 
L 88.86303 199.379768 
L 90.366061 211.238164 
L 91.869091 200.278166 
L 93.372121 212.762048 
L 94.875152 209.813776 
L 96.378182 225.318276 
L 97.881212 189.387586 
L 99.384242 199.444826 
L 100.887273 183.158559 
L 102.390303 186.761123 
L 103.893333 223.364477 
L 105.396364 201.913903 
L 106.899394 205.604591 
L 108.402424 210.184673 
L 109.905455 215.611075 
L 111.408485 194.885362 
L 112.911515 210.672057 
L 114.414545 220.401184 
L 115.917576 222.702812 
L 117.420606 220.671131 
L 118.923636 226.898044 
L 120.426667 200.470723 
L 121.929697 214.465484 
L 123.432727 224.058779 
L 124.935758 197.605221 
L 126.438788 218.912279 
L 127.941818 195.056809 
L 129.444848 244.561532 
L 130.947879 233.050053 
L 133.953939 216.301066 
L 135.45697 223.937957 
L 136.96 224.933667 
L 138.46303 219.598884 
L 139.966061 225.42033 
L 141.469091 232.001017 
L 142.972121 244.767741 
L 144.475152 242.079727 
L 145.978182 231.78675 
L 147.481212 237.900009 
L 148.984242 223.021763 
L 150.487273 253.39393 
L 151.990303 229.426632 
L 153.493333 249.896134 
L 154.996364 235.613342 
L 156.499394 235.501886 
L 158.002424 224.318388 
L 159.505455 245.387547 
L 161.008485 242.293393 
L 162.511515 245.495365 
L 164.014545 246.531937 
L 165.517576 242.230713 
L 167.020606 256.049836 
L 168.523636 243.355158 
L 170.026667 244.530672 
L 171.529697 254.945276 
L 173.032727 255.525528 
L 174.535758 248.21508 
L 176.038788 251.085841 
L 177.541818 252.377147 
L 179.044848 261.632495 
L 180.547879 255.815059 
L 182.050909 257.04737 
L 183.553939 253.152153 
L 185.05697 244.933785 
L 186.56 260.921178 
L 188.06303 248.879591 
L 189.566061 261.640276 
L 191.069091 261.295761 
L 192.572121 255.200981 
L 194.075152 249.831917 
L 195.578182 266.69984 
L 197.081212 249.688243 
L 198.584242 264.03404 
L 200.087273 261.023916 
L 201.590303 259.218978 
L 203.093333 273.528836 
L 204.596364 253.771707 
L 206.099394 260.350256 
L 207.602424 257.656862 
L 209.105455 258.185468 
L 210.608485 253.90701 
L 212.111515 256.296404 
L 213.614545 268.879385 
L 215.117576 264.534344 
L 216.620606 262.986361 
L 218.123636 270.570994 
L 219.626667 274.30395 
L 221.129697 260.831372 
L 222.632727 268.857663 
L 224.135758 255.279392 
L 225.638788 267.031603 
L 227.141818 258.967367 
L 228.644848 274.574389 
L 230.147879 272.856376 
L 231.650909 272.949772 
L 234.65697 259.045586 
L 236.16 249.512654 
L 237.66303 251.23487 
L 239.166061 259.011472 
L 240.669091 274.853811 
L 242.172121 268.783671 
L 243.675152 260.677588 
L 245.178182 281.786445 
L 246.681212 269.660744 
L 248.184242 262.207884 
L 249.687273 277.782269 
L 251.190303 258.192661 
L 252.693333 274.284726 
L 254.196364 265.511406 
L 255.699394 269.79971 
L 257.202424 277.752622 
L 258.705455 273.465927 
L 260.208485 272.380579 
L 261.711515 275.438398 
L 263.214545 279.542778 
L 264.717576 279.454918 
L 266.220606 280.639461 
L 267.723636 272.942688 
L 269.226667 277.912385 
L 270.729697 281.758083 
L 272.232727 284.914977 
L 273.735758 272.307992 
L 275.238788 268.747792 
L 276.741818 278.791067 
L 278.244848 285.805223 
L 279.747879 283.550341 
L 281.250909 287.856206 
L 282.753939 263.683317 
L 284.25697 272.503443 
L 285.76 278.162412 
L 287.26303 279.223131 
L 288.766061 278.716907 
L 290.269091 278.970848 
L 291.772121 277.73736 
L 293.275152 278.348616 
L 294.778182 283.182518 
L 296.281212 273.853166 
L 297.784242 281.038708 
L 299.287273 279.957768 
L 300.790303 278.547153 
L 302.293333 281.417206 
L 303.796364 278.875434 
L 305.299394 284.310674 
L 306.802424 288.95705 
L 308.305455 285.43453 
L 309.808485 284.706558 
L 311.311515 286.226564 
L 312.814545 279.339595 
L 314.317576 282.352468 
L 315.820606 286.172132 
L 317.323636 282.59003 
L 318.826667 282.780113 
L 320.329697 287.501466 
L 321.832727 283.329085 
L 323.335758 289.584204 
L 324.838788 286.218194 
L 327.844848 284.196792 
L 329.347879 285.705546 
L 330.850909 279.684891 
L 332.353939 281.61274 
L 333.85697 280.164458 
L 335.36 282.435898 
L 336.86303 280.456511 
L 338.366061 281.47626 
L 339.869091 281.729216 
L 341.372121 286.048404 
L 342.875152 291.649183 
L 344.378182 294.83022 
L 345.881212 280.950631 
L 347.384242 283.689175 
L 348.887273 288.654712 
L 350.390303 283.509418 
L 351.893333 282.068052 
L 353.396364 288.239789 
L 354.899394 282.9939 
L 356.402424 283.264495 
L 357.905455 283.915497 
L 359.408485 280.667043 
L 360.911515 287.490377 
L 362.414545 281.377556 
L 363.917576 288.135105 
L 365.420606 286.659889 
L 366.923636 287.409288 
L 368.426667 295.488 
L 369.929697 291.063642 
L 371.432727 284.733552 
L 372.935758 294.288969 
L 374.438788 289.895026 
L 375.941818 279.841016 
L 377.444848 285.883045 
L 378.947879 288.205182 
L 380.450909 288.043966 
L 381.953939 287.079423 
L 383.45697 291.67455 
L 384.96 286.261722 
L 386.46303 284.827609 
L 387.966061 290.548982 
L 389.469091 291.655872 
L 390.972121 291.887262 
L 392.475152 290.084299 
L 393.978182 289.682542 
L 395.481212 288.981852 
L 396.984242 283.184115 
L 398.487273 281.795043 
L 398.487273 281.795043 
" clip-path="url(#p003008aea6)" style="fill: none; stroke: #ff7f0e; stroke-width: 1.5; stroke-linecap: square"/>
   </g>
   <g id="patch_3">
    <path d="M 57.6 307.584 
L 57.6 41.472 
" style="fill: none; stroke: #000000; stroke-width: 0.8; stroke-linejoin: miter; stroke-linecap: square"/>
   </g>
   <g id="patch_4">
    <path d="M 414.72 307.584 
L 414.72 41.472 
" style="fill: none; stroke: #000000; stroke-width: 0.8; stroke-linejoin: miter; stroke-linecap: square"/>
   </g>
   <g id="patch_5">
    <path d="M 57.6 307.584 
L 414.72 307.584 
" style="fill: none; stroke: #000000; stroke-width: 0.8; stroke-linejoin: miter; stroke-linecap: square"/>
   </g>
   <g id="patch_6">
    <path d="M 57.6 41.472 
L 414.72 41.472 
" style="fill: none; stroke: #000000; stroke-width: 0.8; stroke-linejoin: miter; stroke-linecap: square"/>
   </g>
   <g id="text_11">
    <!-- Semi-Supervised Training Loss -->
    <g transform="translate(144.914062 35.472) scale(0.12 -0.12)">
     <defs>
      <path id="DejaVuSans-53" d="M 3425 4513 
L 3425 3897 
Q 3066 4069 2747 4153 
Q 2428 4238 2131 4238 
Q 1616 4238 1336 4038 
Q 1056 3838 1056 3469 
Q 1056 3159 1242 3001 
Q 1428 2844 1947 2747 
L 2328 2669 
Q 3034 2534 3370 2195 
Q 3706 1856 3706 1288 
Q 3706 609 3251 259 
Q 2797 -91 1919 -91 
Q 1588 -91 1214 -16 
Q 841 59 441 206 
L 441 856 
Q 825 641 1194 531 
Q 1563 422 1919 422 
Q 2459 422 2753 634 
Q 3047 847 3047 1241 
Q 3047 1584 2836 1778 
Q 2625 1972 2144 2069 
L 1759 2144 
Q 1053 2284 737 2584 
Q 422 2884 422 3419 
Q 422 4038 858 4394 
Q 1294 4750 2059 4750 
Q 2388 4750 2728 4690 
Q 3069 4631 3425 4513 
z
" transform="scale(0.015625)"/>
      <path id="DejaVuSans-65" d="M 3597 1894 
L 3597 1613 
L 953 1613 
Q 991 1019 1311 708 
Q 1631 397 2203 397 
Q 2534 397 2845 478 
Q 3156 559 3463 722 
L 3463 178 
Q 3153 47 2828 -22 
Q 2503 -91 2169 -91 
Q 1331 -91 842 396 
Q 353 884 353 1716 
Q 353 2575 817 3079 
Q 1281 3584 2069 3584 
Q 2775 3584 3186 3129 
Q 3597 2675 3597 1894 
z
M 3022 2063 
Q 3016 2534 2758 2815 
Q 2500 3097 2075 3097 
Q 1594 3097 1305 2825 
Q 1016 2553 972 2059 
L 3022 2063 
z
" transform="scale(0.015625)"/>
      <path id="DejaVuSans-6d" d="M 3328 2828 
Q 3544 3216 3844 3400 
Q 4144 3584 4550 3584 
Q 5097 3584 5394 3201 
Q 5691 2819 5691 2113 
L 5691 0 
L 5113 0 
L 5113 2094 
Q 5113 2597 4934 2840 
Q 4756 3084 4391 3084 
Q 3944 3084 3684 2787 
Q 3425 2491 3425 1978 
L 3425 0 
L 2847 0 
L 2847 2094 
Q 2847 2600 2669 2842 
Q 2491 3084 2119 3084 
Q 1678 3084 1418 2786 
Q 1159 2488 1159 1978 
L 1159 0 
L 581 0 
L 581 3500 
L 1159 3500 
L 1159 2956 
Q 1356 3278 1631 3431 
Q 1906 3584 2284 3584 
Q 2666 3584 2933 3390 
Q 3200 3197 3328 2828 
z
" transform="scale(0.015625)"/>
      <path id="DejaVuSans-69" d="M 603 3500 
L 1178 3500 
L 1178 0 
L 603 0 
L 603 3500 
z
M 603 4863 
L 1178 4863 
L 1178 4134 
L 603 4134 
L 603 4863 
z
" transform="scale(0.015625)"/>
      <path id="DejaVuSans-2d" d="M 313 2009 
L 1997 2009 
L 1997 1497 
L 313 1497 
L 313 2009 
z
" transform="scale(0.015625)"/>
      <path id="DejaVuSans-75" d="M 544 1381 
L 544 3500 
L 1119 3500 
L 1119 1403 
Q 1119 906 1312 657 
Q 1506 409 1894 409 
Q 2359 409 2629 706 
Q 2900 1003 2900 1516 
L 2900 3500 
L 3475 3500 
L 3475 0 
L 2900 0 
L 2900 538 
Q 2691 219 2414 64 
Q 2138 -91 1772 -91 
Q 1169 -91 856 284 
Q 544 659 544 1381 
z
M 1991 3584 
L 1991 3584 
z
" transform="scale(0.015625)"/>
      <path id="DejaVuSans-70" d="M 1159 525 
L 1159 -1331 
L 581 -1331 
L 581 3500 
L 1159 3500 
L 1159 2969 
Q 1341 3281 1617 3432 
Q 1894 3584 2278 3584 
Q 2916 3584 3314 3078 
Q 3713 2572 3713 1747 
Q 3713 922 3314 415 
Q 2916 -91 2278 -91 
Q 1894 -91 1617 61 
Q 1341 213 1159 525 
z
M 3116 1747 
Q 3116 2381 2855 2742 
Q 2594 3103 2138 3103 
Q 1681 3103 1420 2742 
Q 1159 2381 1159 1747 
Q 1159 1113 1420 752 
Q 1681 391 2138 391 
Q 2594 391 2855 752 
Q 3116 1113 3116 1747 
z
" transform="scale(0.015625)"/>
      <path id="DejaVuSans-72" d="M 2631 2963 
Q 2534 3019 2420 3045 
Q 2306 3072 2169 3072 
Q 1681 3072 1420 2755 
Q 1159 2438 1159 1844 
L 1159 0 
L 581 0 
L 581 3500 
L 1159 3500 
L 1159 2956 
Q 1341 3275 1631 3429 
Q 1922 3584 2338 3584 
Q 2397 3584 2469 3576 
Q 2541 3569 2628 3553 
L 2631 2963 
z
" transform="scale(0.015625)"/>
      <path id="DejaVuSans-76" d="M 191 3500 
L 800 3500 
L 1894 563 
L 2988 3500 
L 3597 3500 
L 2284 0 
L 1503 0 
L 191 3500 
z
" transform="scale(0.015625)"/>
      <path id="DejaVuSans-73" d="M 2834 3397 
L 2834 2853 
Q 2591 2978 2328 3040 
Q 2066 3103 1784 3103 
Q 1356 3103 1142 2972 
Q 928 2841 928 2578 
Q 928 2378 1081 2264 
Q 1234 2150 1697 2047 
L 1894 2003 
Q 2506 1872 2764 1633 
Q 3022 1394 3022 966 
Q 3022 478 2636 193 
Q 2250 -91 1575 -91 
Q 1294 -91 989 -36 
Q 684 19 347 128 
L 347 722 
Q 666 556 975 473 
Q 1284 391 1588 391 
Q 1994 391 2212 530 
Q 2431 669 2431 922 
Q 2431 1156 2273 1281 
Q 2116 1406 1581 1522 
L 1381 1569 
Q 847 1681 609 1914 
Q 372 2147 372 2553 
Q 372 3047 722 3315 
Q 1072 3584 1716 3584 
Q 2034 3584 2315 3537 
Q 2597 3491 2834 3397 
z
" transform="scale(0.015625)"/>
      <path id="DejaVuSans-64" d="M 2906 2969 
L 2906 4863 
L 3481 4863 
L 3481 0 
L 2906 0 
L 2906 525 
Q 2725 213 2448 61 
Q 2172 -91 1784 -91 
Q 1150 -91 751 415 
Q 353 922 353 1747 
Q 353 2572 751 3078 
Q 1150 3584 1784 3584 
Q 2172 3584 2448 3432 
Q 2725 3281 2906 2969 
z
M 947 1747 
Q 947 1113 1208 752 
Q 1469 391 1925 391 
Q 2381 391 2643 752 
Q 2906 1113 2906 1747 
Q 2906 2381 2643 2742 
Q 2381 3103 1925 3103 
Q 1469 3103 1208 2742 
Q 947 2381 947 1747 
z
" transform="scale(0.015625)"/>
      <path id="DejaVuSans-20" transform="scale(0.015625)"/>
      <path id="DejaVuSans-54" d="M -19 4666 
L 3928 4666 
L 3928 4134 
L 2272 4134 
L 2272 0 
L 1638 0 
L 1638 4134 
L -19 4134 
L -19 4666 
z
" transform="scale(0.015625)"/>
      <path id="DejaVuSans-61" d="M 2194 1759 
Q 1497 1759 1228 1600 
Q 959 1441 959 1056 
Q 959 750 1161 570 
Q 1363 391 1709 391 
Q 2188 391 2477 730 
Q 2766 1069 2766 1631 
L 2766 1759 
L 2194 1759 
z
M 3341 1997 
L 3341 0 
L 2766 0 
L 2766 531 
Q 2569 213 2275 61 
Q 1981 -91 1556 -91 
Q 1019 -91 701 211 
Q 384 513 384 1019 
Q 384 1609 779 1909 
Q 1175 2209 1959 2209 
L 2766 2209 
L 2766 2266 
Q 2766 2663 2505 2880 
Q 2244 3097 1772 3097 
Q 1472 3097 1187 3025 
Q 903 2953 641 2809 
L 641 3341 
Q 956 3463 1253 3523 
Q 1550 3584 1831 3584 
Q 2591 3584 2966 3190 
Q 3341 2797 3341 1997 
z
" transform="scale(0.015625)"/>
      <path id="DejaVuSans-6e" d="M 3513 2113 
L 3513 0 
L 2938 0 
L 2938 2094 
Q 2938 2591 2744 2837 
Q 2550 3084 2163 3084 
Q 1697 3084 1428 2787 
Q 1159 2491 1159 1978 
L 1159 0 
L 581 0 
L 581 3500 
L 1159 3500 
L 1159 2956 
Q 1366 3272 1645 3428 
Q 1925 3584 2291 3584 
Q 2894 3584 3203 3211 
Q 3513 2838 3513 2113 
z
" transform="scale(0.015625)"/>
      <path id="DejaVuSans-67" d="M 2906 1791 
Q 2906 2416 2648 2759 
Q 2391 3103 1925 3103 
Q 1463 3103 1205 2759 
Q 947 2416 947 1791 
Q 947 1169 1205 825 
Q 1463 481 1925 481 
Q 2391 481 2648 825 
Q 2906 1169 2906 1791 
z
M 3481 434 
Q 3481 -459 3084 -895 
Q 2688 -1331 1869 -1331 
Q 1566 -1331 1297 -1286 
Q 1028 -1241 775 -1147 
L 775 -588 
Q 1028 -725 1275 -790 
Q 1522 -856 1778 -856 
Q 2344 -856 2625 -561 
Q 2906 -266 2906 331 
L 2906 616 
Q 2728 306 2450 153 
Q 2172 0 1784 0 
Q 1141 0 747 490 
Q 353 981 353 1791 
Q 353 2603 747 3093 
Q 1141 3584 1784 3584 
Q 2172 3584 2450 3431 
Q 2728 3278 2906 2969 
L 2906 3500 
L 3481 3500 
L 3481 434 
z
" transform="scale(0.015625)"/>
      <path id="DejaVuSans-4c" d="M 628 4666 
L 1259 4666 
L 1259 531 
L 3531 531 
L 3531 0 
L 628 0 
L 628 4666 
z
" transform="scale(0.015625)"/>
      <path id="DejaVuSans-6f" d="M 1959 3097 
Q 1497 3097 1228 2736 
Q 959 2375 959 1747 
Q 959 1119 1226 758 
Q 1494 397 1959 397 
Q 2419 397 2687 759 
Q 2956 1122 2956 1747 
Q 2956 2369 2687 2733 
Q 2419 3097 1959 3097 
z
M 1959 3584 
Q 2709 3584 3137 3096 
Q 3566 2609 3566 1747 
Q 3566 888 3137 398 
Q 2709 -91 1959 -91 
Q 1206 -91 779 398 
Q 353 888 353 1747 
Q 353 2609 779 3096 
Q 1206 3584 1959 3584 
z
" transform="scale(0.015625)"/>
     </defs>
     <use xlink:href="#DejaVuSans-53"/>
     <use xlink:href="#DejaVuSans-65" transform="translate(63.476562 0)"/>
     <use xlink:href="#DejaVuSans-6d" transform="translate(125 0)"/>
     <use xlink:href="#DejaVuSans-69" transform="translate(222.412109 0)"/>
     <use xlink:href="#DejaVuSans-2d" transform="translate(250.195312 0)"/>
     <use xlink:href="#DejaVuSans-53" transform="translate(286.279297 0)"/>
     <use xlink:href="#DejaVuSans-75" transform="translate(349.755859 0)"/>
     <use xlink:href="#DejaVuSans-70" transform="translate(413.134766 0)"/>
     <use xlink:href="#DejaVuSans-65" transform="translate(476.611328 0)"/>
     <use xlink:href="#DejaVuSans-72" transform="translate(538.134766 0)"/>
     <use xlink:href="#DejaVuSans-76" transform="translate(579.248047 0)"/>
     <use xlink:href="#DejaVuSans-69" transform="translate(638.427734 0)"/>
     <use xlink:href="#DejaVuSans-73" transform="translate(666.210938 0)"/>
     <use xlink:href="#DejaVuSans-65" transform="translate(718.310547 0)"/>
     <use xlink:href="#DejaVuSans-64" transform="translate(779.833984 0)"/>
     <use xlink:href="#DejaVuSans-20" transform="translate(843.310547 0)"/>
     <use xlink:href="#DejaVuSans-54" transform="translate(875.097656 0)"/>
     <use xlink:href="#DejaVuSans-72" transform="translate(921.431641 0)"/>
     <use xlink:href="#DejaVuSans-61" transform="translate(962.544922 0)"/>
     <use xlink:href="#DejaVuSans-69" transform="translate(1023.824219 0)"/>
     <use xlink:href="#DejaVuSans-6e" transform="translate(1051.607422 0)"/>
     <use xlink:href="#DejaVuSans-69" transform="translate(1114.986328 0)"/>
     <use xlink:href="#DejaVuSans-6e" transform="translate(1142.769531 0)"/>
     <use xlink:href="#DejaVuSans-67" transform="translate(1206.148438 0)"/>
     <use xlink:href="#DejaVuSans-20" transform="translate(1269.625 0)"/>
     <use xlink:href="#DejaVuSans-4c" transform="translate(1301.412109 0)"/>
     <use xlink:href="#DejaVuSans-6f" transform="translate(1355.375 0)"/>
     <use xlink:href="#DejaVuSans-73" transform="translate(1416.556641 0)"/>
     <use xlink:href="#DejaVuSans-73" transform="translate(1468.65625 0)"/>
    </g>
   </g>
   <g id="legend_1">
    <g id="patch_7">
     <path d="M 304.729375 78.82825 
L 407.72 78.82825 
Q 409.72 78.82825 409.72 76.82825 
L 409.72 48.472 
Q 409.72 46.472 407.72 46.472 
L 304.729375 46.472 
Q 302.729375 46.472 302.729375 48.472 
L 302.729375 76.82825 
Q 302.729375 78.82825 304.729375 78.82825 
z
" style="fill: #ffffff; opacity: 0.8; stroke: #cccccc; stroke-linejoin: miter"/>
    </g>
    <g id="line2d_23">
     <path d="M 306.729375 54.570437 
L 316.729375 54.570437 
L 326.729375 54.570437 
" style="fill: none; stroke: #1f77b4; stroke-width: 1.5; stroke-linecap: square"/>
    </g>
    <g id="text_12">
     <!-- Train (Pseudo) -->
     <g transform="translate(334.729375 58.070437) scale(0.1 -0.1)">
      <defs>
       <path id="DejaVuSans-28" d="M 1984 4856 
Q 1566 4138 1362 3434 
Q 1159 2731 1159 2009 
Q 1159 1288 1364 580 
Q 1569 -128 1984 -844 
L 1484 -844 
Q 1016 -109 783 600 
Q 550 1309 550 2009 
Q 550 2706 781 3412 
Q 1013 4119 1484 4856 
L 1984 4856 
z
" transform="scale(0.015625)"/>
       <path id="DejaVuSans-50" d="M 1259 4147 
L 1259 2394 
L 2053 2394 
Q 2494 2394 2734 2622 
Q 2975 2850 2975 3272 
Q 2975 3691 2734 3919 
Q 2494 4147 2053 4147 
L 1259 4147 
z
M 628 4666 
L 2053 4666 
Q 2838 4666 3239 4311 
Q 3641 3956 3641 3272 
Q 3641 2581 3239 2228 
Q 2838 1875 2053 1875 
L 1259 1875 
L 1259 0 
L 628 0 
L 628 4666 
z
" transform="scale(0.015625)"/>
       <path id="DejaVuSans-29" d="M 513 4856 
L 1013 4856 
Q 1481 4119 1714 3412 
Q 1947 2706 1947 2009 
Q 1947 1309 1714 600 
Q 1481 -109 1013 -844 
L 513 -844 
Q 928 -128 1133 580 
Q 1338 1288 1338 2009 
Q 1338 2731 1133 3434 
Q 928 4138 513 4856 
z
" transform="scale(0.015625)"/>
      </defs>
      <use xlink:href="#DejaVuSans-54"/>
      <use xlink:href="#DejaVuSans-72" transform="translate(46.333984 0)"/>
      <use xlink:href="#DejaVuSans-61" transform="translate(87.447266 0)"/>
      <use xlink:href="#DejaVuSans-69" transform="translate(148.726562 0)"/>
      <use xlink:href="#DejaVuSans-6e" transform="translate(176.509766 0)"/>
      <use xlink:href="#DejaVuSans-20" transform="translate(239.888672 0)"/>
      <use xlink:href="#DejaVuSans-28" transform="translate(271.675781 0)"/>
      <use xlink:href="#DejaVuSans-50" transform="translate(310.689453 0)"/>
      <use xlink:href="#DejaVuSans-73" transform="translate(369.242188 0)"/>
      <use xlink:href="#DejaVuSans-65" transform="translate(421.341797 0)"/>
      <use xlink:href="#DejaVuSans-75" transform="translate(482.865234 0)"/>
      <use xlink:href="#DejaVuSans-64" transform="translate(546.244141 0)"/>
      <use xlink:href="#DejaVuSans-6f" transform="translate(609.720703 0)"/>
      <use xlink:href="#DejaVuSans-29" transform="translate(670.902344 0)"/>
     </g>
    </g>
    <g id="line2d_24">
     <path d="M 306.729375 69.248562 
L 316.729375 69.248562 
L 326.729375 69.248562 
" style="fill: none; stroke: #ff7f0e; stroke-width: 1.5; stroke-linecap: square"/>
    </g>
    <g id="text_13">
     <!-- Val (Real) -->
     <g transform="translate(334.729375 72.748562) scale(0.1 -0.1)">
      <defs>
       <path id="DejaVuSans-56" d="M 1831 0 
L 50 4666 
L 709 4666 
L 2188 738 
L 3669 4666 
L 4325 4666 
L 2547 0 
L 1831 0 
z
" transform="scale(0.015625)"/>
       <path id="DejaVuSans-6c" d="M 603 4863 
L 1178 4863 
L 1178 0 
L 603 0 
L 603 4863 
z
" transform="scale(0.015625)"/>
       <path id="DejaVuSans-52" d="M 2841 2188 
Q 3044 2119 3236 1894 
Q 3428 1669 3622 1275 
L 4263 0 
L 3584 0 
L 2988 1197 
Q 2756 1666 2539 1819 
Q 2322 1972 1947 1972 
L 1259 1972 
L 1259 0 
L 628 0 
L 628 4666 
L 2053 4666 
Q 2853 4666 3247 4331 
Q 3641 3997 3641 3322 
Q 3641 2881 3436 2590 
Q 3231 2300 2841 2188 
z
M 1259 4147 
L 1259 2491 
L 2053 2491 
Q 2509 2491 2742 2702 
Q 2975 2913 2975 3322 
Q 2975 3731 2742 3939 
Q 2509 4147 2053 4147 
L 1259 4147 
z
" transform="scale(0.015625)"/>
      </defs>
      <use xlink:href="#DejaVuSans-56"/>
      <use xlink:href="#DejaVuSans-61" transform="translate(60.658203 0)"/>
      <use xlink:href="#DejaVuSans-6c" transform="translate(121.9375 0)"/>
      <use xlink:href="#DejaVuSans-20" transform="translate(149.720703 0)"/>
      <use xlink:href="#DejaVuSans-28" transform="translate(181.507812 0)"/>
      <use xlink:href="#DejaVuSans-52" transform="translate(220.521484 0)"/>
      <use xlink:href="#DejaVuSans-65" transform="translate(285.503906 0)"/>
      <use xlink:href="#DejaVuSans-61" transform="translate(347.027344 0)"/>
      <use xlink:href="#DejaVuSans-6c" transform="translate(408.306641 0)"/>
      <use xlink:href="#DejaVuSans-29" transform="translate(436.089844 0)"/>
     </g>
    </g>
   </g>
  </g>
 </g>
 <defs>
  <clipPath id="p003008aea6">
   <rect x="57.6" y="41.472" width="357.12" height="266.112"/>
  </clipPath>
 </defs>
</svg>
